<?xml version="1.0" encoding="UTF-8" standalone="no"?>
<!-- Created with Inkscape (http://www.inkscape.org/) -->

<svg
   xmlns:ns0="http://www.iki.fi/pav/software/textext/"
   xmlns:dc="http://purl.org/dc/elements/1.1/"
   xmlns:cc="http://creativecommons.org/ns#"
   xmlns:rdf="http://www.w3.org/1999/02/22-rdf-syntax-ns#"
   xmlns:svg="http://www.w3.org/2000/svg"
   xmlns="http://www.w3.org/2000/svg"
   xmlns:sodipodi="http://sodipodi.sourceforge.net/DTD/sodipodi-0.dtd"
   xmlns:inkscape="http://www.inkscape.org/namespaces/inkscape"
   version="1.1"
   id="svg815"
   xml:space="preserve"
   width="1728"
   height="768"
   viewBox="0 0 1728 768"
   sodipodi:docname="H1menos.svg"
   inkscape:version="0.92.4 (5da689c313, 2019-01-14)"><metadata
     id="metadata821"><rdf:RDF><cc:Work
         rdf:about=""><dc:format>image/svg+xml</dc:format><dc:type
           rdf:resource="http://purl.org/dc/dcmitype/StillImage" /><dc:title></dc:title></cc:Work></rdf:RDF></metadata><defs
     id="defs819"><marker
       inkscape:stockid="Arrow1Lend"
       orient="auto"
       refY="0.0"
       refX="0.0"
       id="Arrow1Lend"
       style="overflow:visible;"
       inkscape:isstock="true"><path
         id="path1448"
         d="M 0.0,0.0 L 5.0,-5.0 L -12.5,0.0 L 5.0,5.0 L 0.0,0.0 z "
         style="fill-rule:evenodd;stroke:#000000;stroke-width:1pt;stroke-opacity:1;fill:#000000;fill-opacity:1"
         transform="scale(0.8) rotate(180) translate(12.5,0)" /></marker><clipPath
       clipPathUnits="userSpaceOnUse"
       id="clipPath835"><path
         d="M 162,72 H 1166.4 V 506.88 H 162 Z"
         id="path833"
         inkscape:connector-curvature="0" /></clipPath><clipPath
       clipPathUnits="userSpaceOnUse"
       id="clipPath853"><path
         d="M 162,72 H 1166.4 V 506.88 H 162 Z"
         id="path851"
         inkscape:connector-curvature="0" /></clipPath><clipPath
       clipPathUnits="userSpaceOnUse"
       id="clipPath871"><path
         d="M 162,72 H 1166.4 V 506.88 H 162 Z"
         id="path869"
         inkscape:connector-curvature="0" /></clipPath><clipPath
       clipPathUnits="userSpaceOnUse"
       id="clipPath889"><path
         d="M 162,72 H 1166.4 V 506.88 H 162 Z"
         id="path887"
         inkscape:connector-curvature="0" /></clipPath><clipPath
       clipPathUnits="userSpaceOnUse"
       id="clipPath907"><path
         d="M 162,72 H 1166.4 V 506.88 H 162 Z"
         id="path905"
         inkscape:connector-curvature="0" /></clipPath><clipPath
       clipPathUnits="userSpaceOnUse"
       id="clipPath925"><path
         d="M 162,72 H 1166.4 V 506.88 H 162 Z"
         id="path923"
         inkscape:connector-curvature="0" /></clipPath><clipPath
       clipPathUnits="userSpaceOnUse"
       id="clipPath953"><path
         d="M 162,72 H 1166.4 V 506.88 H 162 Z"
         id="path951"
         inkscape:connector-curvature="0" /></clipPath><clipPath
       clipPathUnits="userSpaceOnUse"
       id="clipPath971"><path
         d="M 162,72 H 1166.4 V 506.88 H 162 Z"
         id="path969"
         inkscape:connector-curvature="0" /></clipPath><clipPath
       clipPathUnits="userSpaceOnUse"
       id="clipPath989"><path
         d="M 162,72 H 1166.4 V 506.88 H 162 Z"
         id="path987"
         inkscape:connector-curvature="0" /></clipPath><clipPath
       clipPathUnits="userSpaceOnUse"
       id="clipPath1007"><path
         d="M 162,72 H 1166.4 V 506.88 H 162 Z"
         id="path1005"
         inkscape:connector-curvature="0" /></clipPath><clipPath
       clipPathUnits="userSpaceOnUse"
       id="clipPath1025"><path
         d="M 162,72 H 1166.4 V 506.88 H 162 Z"
         id="path1023"
         inkscape:connector-curvature="0" /></clipPath><clipPath
       clipPathUnits="userSpaceOnUse"
       id="clipPath1043"><path
         d="M 162,72 H 1166.4 V 506.88 H 162 Z"
         id="path1041"
         inkscape:connector-curvature="0" /></clipPath><clipPath
       clipPathUnits="userSpaceOnUse"
       id="clipPath1065"><path
         d="M 162,72 H 1166.4 V 506.88 H 162 Z"
         id="path1063"
         inkscape:connector-curvature="0" /></clipPath><clipPath
       clipPathUnits="userSpaceOnUse"
       id="clipPath1075"><path
         d="M 162,72 H 1166.4 V 506.88 H 162 Z"
         id="path1073"
         inkscape:connector-curvature="0" /></clipPath><clipPath
       clipPathUnits="userSpaceOnUse"
       id="clipPath1085"><path
         d="M 162,72 H 1166.4 V 506.88 H 162 Z"
         id="path1083"
         inkscape:connector-curvature="0" /></clipPath><clipPath
       clipPathUnits="userSpaceOnUse"
       id="clipPath1095"><path
         d="M 162,72 H 1166.4 V 506.88 H 162 Z"
         id="path1093"
         inkscape:connector-curvature="0" /></clipPath><clipPath
       clipPathUnits="userSpaceOnUse"
       id="clipPath1143"><path
         d="M -1021,-463 H 1794 V 1233 H -1021 Z"
         id="path1141"
         inkscape:connector-curvature="0" /></clipPath><clipPath
       clipPathUnits="userSpaceOnUse"
       id="clipPath1207"><path
         d="M -1021,-463 H 1794 V 1233 H -1021 Z"
         id="path1205"
         inkscape:connector-curvature="0" /></clipPath><clipPath
       clipPathUnits="userSpaceOnUse"
       id="clipPath1243"><path
         d="M -1021,-463 H 1794 V 1233 H -1021 Z"
         id="path1241"
         inkscape:connector-curvature="0" /></clipPath><marker
       inkscape:stockid="Arrow1Lend"
       orient="auto"
       refY="0"
       refX="0"
       id="Arrow1Lend-0"
       style="overflow:visible"
       inkscape:isstock="true"><path
         inkscape:connector-curvature="0"
         id="path1448-7"
         d="M 0,0 5,-5 -12.5,0 5,5 Z"
         style="fill:#000000;fill-opacity:1;fill-rule:evenodd;stroke:#000000;stroke-width:1.00000003pt;stroke-opacity:1"
         transform="matrix(-0.8,0,0,-0.8,-10,0)" /></marker><clipPath
       clipPathUnits="userSpaceOnUse"
       id="clipPath1207-7"><path
         d="M -1021,-463 H 1794 V 1233 H -1021 Z"
         id="path1205-8"
         inkscape:connector-curvature="0" /></clipPath><marker
       inkscape:stockid="Arrow1Lstart"
       orient="auto"
       refY="0"
       refX="0"
       id="Arrow1Lstart"
       style="overflow:visible"
       inkscape:isstock="true"><path
         inkscape:connector-curvature="0"
         id="path1445"
         d="M 0,0 5,-5 -12.5,0 5,5 Z"
         style="fill:#000000;fill-opacity:1;fill-rule:evenodd;stroke:#000000;stroke-width:1.00000003pt;stroke-opacity:1"
         transform="matrix(0.8,0,0,0.8,10,0)" /></marker><marker
       inkscape:isstock="true"
       style="overflow:visible"
       id="marker4401"
       refX="0"
       refY="0"
       orient="auto"
       inkscape:stockid="Arrow1Lend"><path
         transform="matrix(-0.8,0,0,-0.8,-10,0)"
         style="fill:#000000;fill-opacity:1;fill-rule:evenodd;stroke:#000000;stroke-width:1.00000003pt;stroke-opacity:1"
         d="M 0,0 5,-5 -12.5,0 5,5 Z"
         id="path4399"
         inkscape:connector-curvature="0" /></marker><clipPath
       clipPathUnits="userSpaceOnUse"
       id="clipPath1108"><path
         d="M 162,72 H 1166.4 V 506.88 H 162 Z"
         id="path1106"
         inkscape:connector-curvature="0" /></clipPath><clipPath
       clipPathUnits="userSpaceOnUse"
       id="clipPath1126"><path
         d="M 162,72 H 1166.4 V 506.88 H 162 Z"
         id="path1124"
         inkscape:connector-curvature="0" /></clipPath><clipPath
       clipPathUnits="userSpaceOnUse"
       id="clipPath1144"><path
         d="M 162,72 H 1166.4 V 506.88 H 162 Z"
         id="path1142"
         inkscape:connector-curvature="0" /></clipPath><clipPath
       clipPathUnits="userSpaceOnUse"
       id="clipPath1162"><path
         d="M 162,72 H 1166.4 V 506.88 H 162 Z"
         id="path1160"
         inkscape:connector-curvature="0" /></clipPath><clipPath
       clipPathUnits="userSpaceOnUse"
       id="clipPath1180"><path
         d="M 162,72 H 1166.4 V 506.88 H 162 Z"
         id="path1178"
         inkscape:connector-curvature="0" /></clipPath><clipPath
       clipPathUnits="userSpaceOnUse"
       id="clipPath1198"><path
         d="M 162,72 H 1166.4 V 506.88 H 162 Z"
         id="path1196"
         inkscape:connector-curvature="0" /></clipPath><clipPath
       clipPathUnits="userSpaceOnUse"
       id="clipPath1226"><path
         d="M 162,72 H 1166.4 V 506.88 H 162 Z"
         id="path1224"
         inkscape:connector-curvature="0" /></clipPath><clipPath
       clipPathUnits="userSpaceOnUse"
       id="clipPath1244"><path
         d="M 162,72 H 1166.4 V 506.88 H 162 Z"
         id="path1242"
         inkscape:connector-curvature="0" /></clipPath><clipPath
       clipPathUnits="userSpaceOnUse"
       id="clipPath1262"><path
         d="M 162,72 H 1166.4 V 506.88 H 162 Z"
         id="path1260"
         inkscape:connector-curvature="0" /></clipPath><clipPath
       clipPathUnits="userSpaceOnUse"
       id="clipPath1280"><path
         d="M 162,72 H 1166.4 V 506.88 H 162 Z"
         id="path1278"
         inkscape:connector-curvature="0" /></clipPath><clipPath
       clipPathUnits="userSpaceOnUse"
       id="clipPath1298"><path
         d="M 162,72 H 1166.4 V 506.88 H 162 Z"
         id="path1296"
         inkscape:connector-curvature="0" /></clipPath><clipPath
       clipPathUnits="userSpaceOnUse"
       id="clipPath1316"><path
         d="M 162,72 H 1166.4 V 506.88 H 162 Z"
         id="path1314"
         inkscape:connector-curvature="0" /></clipPath><clipPath
       clipPathUnits="userSpaceOnUse"
       id="clipPath1338"><path
         d="M 162,72 H 1166.4 V 506.88 H 162 Z"
         id="path1336"
         inkscape:connector-curvature="0" /></clipPath><clipPath
       clipPathUnits="userSpaceOnUse"
       id="clipPath1348"><path
         d="M 162,72 H 1166.4 V 506.88 H 162 Z"
         id="path1346"
         inkscape:connector-curvature="0" /></clipPath><clipPath
       clipPathUnits="userSpaceOnUse"
       id="clipPath1358"><path
         d="M 162,72 H 1166.4 V 506.88 H 162 Z"
         id="path1356"
         inkscape:connector-curvature="0" /></clipPath><clipPath
       clipPathUnits="userSpaceOnUse"
       id="clipPath1368"><path
         d="M 162,72 H 1166.4 V 506.88 H 162 Z"
         id="path1366"
         inkscape:connector-curvature="0" /></clipPath><clipPath
       clipPathUnits="userSpaceOnUse"
       id="clipPath1416"><path
         d="M -1021,-463 H 1794 V 1233 H -1021 Z"
         id="path1414"
         inkscape:connector-curvature="0" /></clipPath><clipPath
       clipPathUnits="userSpaceOnUse"
       id="clipPath1480"><path
         d="M -1021,-463 H 1794 V 1233 H -1021 Z"
         id="path1478"
         inkscape:connector-curvature="0" /></clipPath><clipPath
       clipPathUnits="userSpaceOnUse"
       id="clipPath1516"><path
         d="M -1021,-463 H 1794 V 1233 H -1021 Z"
         id="path1514"
         inkscape:connector-curvature="0" /></clipPath><clipPath
       clipPathUnits="userSpaceOnUse"
       id="clipPath1528"><path
         d="M -1021,-463 H 1794 V 1233 H -1021 Z"
         id="path1526"
         inkscape:connector-curvature="0" /></clipPath></defs><sodipodi:namedview
     pagecolor="#ffffff"
     bordercolor="#666666"
     borderopacity="1"
     objecttolerance="10"
     gridtolerance="10"
     guidetolerance="10"
     inkscape:pageopacity="0"
     inkscape:pageshadow="2"
     inkscape:window-width="1920"
     inkscape:window-height="1001"
     id="namedview817"
     showgrid="false"
     inkscape:zoom="0.60563346"
     inkscape:cx="1124.1269"
     inkscape:cy="301.6061"
     inkscape:window-x="-9"
     inkscape:window-y="-9"
     inkscape:window-maximized="1"
     inkscape:current-layer="g823" /><g
     id="g823"
     inkscape:groupmode="layer"
     inkscape:label="H1menos"
     transform="matrix(1.3333333,0,0,-1.3333333,0,768)">
<g
   transform="matrix(1.1030978,0,0,1.2083112,-65.51712,-55.712832)"
   id="g1739"><path
     inkscape:connector-curvature="0"
     id="path1098"
     style="fill:#ffffff;fill-opacity:1;fill-rule:nonzero;stroke:none"
     d="M 0,0 H 1296 V 576 H 0 Z" /><path
     inkscape:connector-curvature="0"
     id="path1100"
     style="fill:#ffffff;fill-opacity:1;fill-rule:nonzero;stroke:none"
     d="M 162,72 H 1166.4 V 506.88 H 162 Z" /><g
     id="g1102"><g
       clip-path="url(#clipPath1108)"
       id="g1104"><path
         inkscape:connector-curvature="0"
         id="path1110"
         style="fill:none;stroke:#b0b0b0;stroke-width:0.80000001;stroke-linecap:square;stroke-linejoin:round;stroke-miterlimit:10;stroke-dasharray:none;stroke-opacity:1"
         d="M 209.11034,72 V 506.88" /></g></g><g
     id="g1112"><path
       inkscape:connector-curvature="0"
       id="path1114"
       style="fill:#000000;fill-opacity:1;fill-rule:nonzero;stroke:#000000;stroke-width:0.80000001;stroke-linecap:butt;stroke-linejoin:round;stroke-miterlimit:10;stroke-dasharray:none;stroke-opacity:1"
       d="M 209.11034,72 V 68.5" /><text
       id="text1118"
       style="font-variant:normal;font-weight:normal;font-size:20px;font-family:DejaVuSans;-inkscape-font-specification:DejaVuSans;writing-mode:lr-tb;fill:#000000;fill-opacity:1;fill-rule:nonzero;stroke:none"
       transform="matrix(1,0,0,-1,180.49316,49.796875)"><tspan
         id="tspan1116"
         sodipodi:role="line"
         y="0"
         x="0 12.72 25.440001 31.799999 44.52">82.35</tspan></text>
</g><g
     id="g1120"><g
       clip-path="url(#clipPath1126)"
       id="g1122"><path
         inkscape:connector-curvature="0"
         id="path1128"
         style="fill:none;stroke:#b0b0b0;stroke-width:0.80000001;stroke-linecap:square;stroke-linejoin:round;stroke-miterlimit:10;stroke-dasharray:none;stroke-opacity:1"
         d="M 392.18461,72 V 506.88" /></g></g><g
     id="g1130"><path
       inkscape:connector-curvature="0"
       id="path1132"
       style="fill:#000000;fill-opacity:1;fill-rule:nonzero;stroke:#000000;stroke-width:0.80000001;stroke-linecap:butt;stroke-linejoin:round;stroke-miterlimit:10;stroke-dasharray:none;stroke-opacity:1"
       d="M 392.18461,72 V 68.5" /><text
       id="text1136"
       style="font-variant:normal;font-weight:normal;font-size:20px;font-family:DejaVuSans;-inkscape-font-specification:DejaVuSans;writing-mode:lr-tb;fill:#000000;fill-opacity:1;fill-rule:nonzero;stroke:none"
       transform="matrix(1,0,0,-1,363.56742,49.796875)"><tspan
         id="tspan1134"
         sodipodi:role="line"
         y="0"
         x="0 12.72 25.440001 31.799999 44.52">82.40</tspan></text>
</g><g
     id="g1138"><g
       clip-path="url(#clipPath1144)"
       id="g1140"><path
         inkscape:connector-curvature="0"
         id="path1146"
         style="fill:none;stroke:#b0b0b0;stroke-width:0.80000001;stroke-linecap:square;stroke-linejoin:round;stroke-miterlimit:10;stroke-dasharray:none;stroke-opacity:1"
         d="M 575.25887,72 V 506.88" /></g></g><g
     id="g1148"><path
       inkscape:connector-curvature="0"
       id="path1150"
       style="fill:#000000;fill-opacity:1;fill-rule:nonzero;stroke:#000000;stroke-width:0.80000001;stroke-linecap:butt;stroke-linejoin:round;stroke-miterlimit:10;stroke-dasharray:none;stroke-opacity:1"
       d="M 575.25887,72 V 68.5" /><text
       id="text1154"
       style="font-variant:normal;font-weight:normal;font-size:20px;font-family:DejaVuSans;-inkscape-font-specification:DejaVuSans;writing-mode:lr-tb;fill:#000000;fill-opacity:1;fill-rule:nonzero;stroke:none"
       transform="matrix(1,0,0,-1,546.64168,49.796875)"><tspan
         id="tspan1152"
         sodipodi:role="line"
         y="0"
         x="0 12.72 25.440001 31.799999 44.52">82.45</tspan></text>
</g><g
     id="g1156"><g
       clip-path="url(#clipPath1162)"
       id="g1158"><path
         inkscape:connector-curvature="0"
         id="path1164"
         style="fill:none;stroke:#b0b0b0;stroke-width:0.80000001;stroke-linecap:square;stroke-linejoin:round;stroke-miterlimit:10;stroke-dasharray:none;stroke-opacity:1"
         d="M 758.33314,72 V 506.88" /></g></g><g
     id="g1166"><path
       inkscape:connector-curvature="0"
       id="path1168"
       style="fill:#000000;fill-opacity:1;fill-rule:nonzero;stroke:#000000;stroke-width:0.80000001;stroke-linecap:butt;stroke-linejoin:round;stroke-miterlimit:10;stroke-dasharray:none;stroke-opacity:1"
       d="M 758.33314,72 V 68.5" /><text
       id="text1172"
       style="font-variant:normal;font-weight:normal;font-size:20px;font-family:DejaVuSans;-inkscape-font-specification:DejaVuSans;writing-mode:lr-tb;fill:#000000;fill-opacity:1;fill-rule:nonzero;stroke:none"
       transform="matrix(1,0,0,-1,729.71595,49.796875)"><tspan
         id="tspan1170"
         sodipodi:role="line"
         y="0"
         x="0 12.72 25.440001 31.799999 44.52">82.50</tspan></text>
</g><g
     id="g1174"><g
       clip-path="url(#clipPath1180)"
       id="g1176"><path
         inkscape:connector-curvature="0"
         id="path1182"
         style="fill:none;stroke:#b0b0b0;stroke-width:0.80000001;stroke-linecap:square;stroke-linejoin:round;stroke-miterlimit:10;stroke-dasharray:none;stroke-opacity:1"
         d="M 941.4074,72 V 506.88" /></g></g><g
     id="g1184"><path
       inkscape:connector-curvature="0"
       id="path1186"
       style="fill:#000000;fill-opacity:1;fill-rule:nonzero;stroke:#000000;stroke-width:0.80000001;stroke-linecap:butt;stroke-linejoin:round;stroke-miterlimit:10;stroke-dasharray:none;stroke-opacity:1"
       d="M 941.4074,72 V 68.5" /><text
       id="text1190"
       style="font-variant:normal;font-weight:normal;font-size:20px;font-family:DejaVuSans;-inkscape-font-specification:DejaVuSans;writing-mode:lr-tb;fill:#000000;fill-opacity:1;fill-rule:nonzero;stroke:none"
       transform="matrix(1,0,0,-1,912.79021,49.796875)"><tspan
         id="tspan1188"
         sodipodi:role="line"
         y="0"
         x="0 12.72 25.440001 31.799999 44.52">82.55</tspan></text>
</g><g
     id="g1192"><g
       clip-path="url(#clipPath1198)"
       id="g1194"><path
         inkscape:connector-curvature="0"
         id="path1200"
         style="fill:none;stroke:#b0b0b0;stroke-width:0.80000001;stroke-linecap:square;stroke-linejoin:round;stroke-miterlimit:10;stroke-dasharray:none;stroke-opacity:1"
         d="M 1124.4817,72 V 506.88" /></g></g><g
     id="g1202"><path
       inkscape:connector-curvature="0"
       id="path1204"
       style="fill:#000000;fill-opacity:1;fill-rule:nonzero;stroke:#000000;stroke-width:0.80000001;stroke-linecap:butt;stroke-linejoin:round;stroke-miterlimit:10;stroke-dasharray:none;stroke-opacity:1"
       d="M 1124.4817,72 V 68.5" /><text
       id="text1208"
       style="font-variant:normal;font-weight:normal;font-size:20px;font-family:DejaVuSans;-inkscape-font-specification:DejaVuSans;writing-mode:lr-tb;fill:#000000;fill-opacity:1;fill-rule:nonzero;stroke:none"
       transform="matrix(1,0,0,-1,1095.8645,49.796875)"><tspan
         id="tspan1206"
         sodipodi:role="line"
         y="0"
         x="0 12.72 25.440001 31.799999 44.52">82.60</tspan></text>
<g
       transform="translate(627.7,26.4375)"
       id="g1210"><text
         id="text1214"
         style="font-style:italic;font-variant:normal;font-size:20px;font-family:DejaVuSans;-inkscape-font-specification:DejaVuSans-Oblique;writing-mode:lr-tb;fill:#000000;fill-opacity:1;fill-rule:nonzero;stroke:none"
         transform="matrix(1,0,0,-1,0,0.796875)"><tspan
           id="tspan1212"
           y="0"
           x="0">H</tspan></text>
<text
         id="text1218"
         style="font-variant:normal;font-weight:normal;font-size:20px;font-family:DejaVuSans;-inkscape-font-specification:DejaVuSans;writing-mode:lr-tb;fill:#000000;fill-opacity:1;fill-rule:nonzero;stroke:none"
         transform="matrix(1,0,0,-1,21.396484,0.796875)"><tspan
           id="tspan1216"
           sodipodi:role="line"
           y="0"
           x="0 7.8027344 19.384766 31.445312 43.701172">[kPa]</tspan></text>
</g></g><g
     id="g1220"><g
       clip-path="url(#clipPath1226)"
       id="g1222"><path
         inkscape:connector-curvature="0"
         id="path1228"
         style="fill:none;stroke:#b0b0b0;stroke-width:0.80000001;stroke-linecap:square;stroke-linejoin:round;stroke-miterlimit:10;stroke-dasharray:none;stroke-opacity:1"
         d="M 162,91.527371 H 1166.4" /></g></g><g
     id="g1230"><path
       inkscape:connector-curvature="0"
       id="path1232"
       style="fill:#000000;fill-opacity:1;fill-rule:nonzero;stroke:#000000;stroke-width:0.80000001;stroke-linecap:butt;stroke-linejoin:round;stroke-miterlimit:10;stroke-dasharray:none;stroke-opacity:1"
       d="m 162,91.527371 h -3.5" /><text
       id="text1236"
       style="font-variant:normal;font-weight:normal;font-size:20px;font-family:DejaVuSans;-inkscape-font-specification:DejaVuSans;writing-mode:lr-tb;fill:#000000;fill-opacity:1;fill-rule:nonzero;stroke:none"
       transform="matrix(1,0,0,-1,123.20313,83.925809)"><tspan
         id="tspan1234"
         sodipodi:role="line"
         y="0"
         x="0 12.72 19.08">0.2</tspan></text>
</g><g
     id="g1238"><g
       clip-path="url(#clipPath1244)"
       id="g1240"><path
         inkscape:connector-curvature="0"
         id="path1246"
         style="fill:none;stroke:#b0b0b0;stroke-width:0.80000001;stroke-linecap:square;stroke-linejoin:round;stroke-miterlimit:10;stroke-dasharray:none;stroke-opacity:1"
         d="M 162,164.67311 H 1166.4" /></g></g><g
     id="g1248"><path
       inkscape:connector-curvature="0"
       id="path1250"
       style="fill:#000000;fill-opacity:1;fill-rule:nonzero;stroke:#000000;stroke-width:0.80000001;stroke-linecap:butt;stroke-linejoin:round;stroke-miterlimit:10;stroke-dasharray:none;stroke-opacity:1"
       d="m 162,164.67311 h -3.5" /><text
       id="text1254"
       style="font-variant:normal;font-weight:normal;font-size:20px;font-family:DejaVuSans;-inkscape-font-specification:DejaVuSans;writing-mode:lr-tb;fill:#000000;fill-opacity:1;fill-rule:nonzero;stroke:none"
       transform="matrix(1,0,0,-1,123.20313,157.07155)"><tspan
         id="tspan1252"
         sodipodi:role="line"
         y="0"
         x="0 12.72 19.08">0.4</tspan></text>
</g><g
     id="g1256"><g
       clip-path="url(#clipPath1262)"
       id="g1258"><path
         inkscape:connector-curvature="0"
         id="path1264"
         style="fill:none;stroke:#b0b0b0;stroke-width:0.80000001;stroke-linecap:square;stroke-linejoin:round;stroke-miterlimit:10;stroke-dasharray:none;stroke-opacity:1"
         d="M 162,237.81885 H 1166.4" /></g></g><g
     id="g1266"><path
       inkscape:connector-curvature="0"
       id="path1268"
       style="fill:#000000;fill-opacity:1;fill-rule:nonzero;stroke:#000000;stroke-width:0.80000001;stroke-linecap:butt;stroke-linejoin:round;stroke-miterlimit:10;stroke-dasharray:none;stroke-opacity:1"
       d="m 162,237.81885 h -3.5" /><text
       id="text1272"
       style="font-variant:normal;font-weight:normal;font-size:20px;font-family:DejaVuSans;-inkscape-font-specification:DejaVuSans;writing-mode:lr-tb;fill:#000000;fill-opacity:1;fill-rule:nonzero;stroke:none"
       transform="matrix(1,0,0,-1,123.20313,230.21729)"><tspan
         id="tspan1270"
         sodipodi:role="line"
         y="0"
         x="0 12.72 19.08">0.6</tspan></text>
</g><g
     id="g1274"><g
       clip-path="url(#clipPath1280)"
       id="g1276"><path
         inkscape:connector-curvature="0"
         id="path1282"
         style="fill:none;stroke:#b0b0b0;stroke-width:0.80000001;stroke-linecap:square;stroke-linejoin:round;stroke-miterlimit:10;stroke-dasharray:none;stroke-opacity:1"
         d="M 162,310.9646 H 1166.4" /></g></g><g
     id="g1284"><path
       inkscape:connector-curvature="0"
       id="path1286"
       style="fill:#000000;fill-opacity:1;fill-rule:nonzero;stroke:#000000;stroke-width:0.80000001;stroke-linecap:butt;stroke-linejoin:round;stroke-miterlimit:10;stroke-dasharray:none;stroke-opacity:1"
       d="m 162,310.9646 h -3.5" /><text
       id="text1290"
       style="font-variant:normal;font-weight:normal;font-size:20px;font-family:DejaVuSans;-inkscape-font-specification:DejaVuSans;writing-mode:lr-tb;fill:#000000;fill-opacity:1;fill-rule:nonzero;stroke:none"
       transform="matrix(1,0,0,-1,123.20313,303.36303)"><tspan
         id="tspan1288"
         sodipodi:role="line"
         y="0"
         x="0 12.72 19.08">0.8</tspan></text>
</g><g
     id="g1292"><g
       clip-path="url(#clipPath1298)"
       id="g1294"><path
         inkscape:connector-curvature="0"
         id="path1300"
         style="fill:none;stroke:#b0b0b0;stroke-width:0.80000001;stroke-linecap:square;stroke-linejoin:round;stroke-miterlimit:10;stroke-dasharray:none;stroke-opacity:1"
         d="M 162,384.11034 H 1166.4" /></g></g><g
     id="g1302"><path
       inkscape:connector-curvature="0"
       id="path1304"
       style="fill:#000000;fill-opacity:1;fill-rule:nonzero;stroke:#000000;stroke-width:0.80000001;stroke-linecap:butt;stroke-linejoin:round;stroke-miterlimit:10;stroke-dasharray:none;stroke-opacity:1"
       d="m 162,384.11034 h -3.5" /><text
       id="text1308"
       style="font-variant:normal;font-weight:normal;font-size:20px;font-family:DejaVuSans;-inkscape-font-specification:DejaVuSans;writing-mode:lr-tb;fill:#000000;fill-opacity:1;fill-rule:nonzero;stroke:none"
       transform="matrix(1,0,0,-1,123.20313,376.50878)"><tspan
         id="tspan1306"
         sodipodi:role="line"
         y="0"
         x="0 12.72 19.08">1.0</tspan></text>
</g><g
     id="g1310"><g
       clip-path="url(#clipPath1316)"
       id="g1312"><path
         inkscape:connector-curvature="0"
         id="path1318"
         style="fill:none;stroke:#b0b0b0;stroke-width:0.80000001;stroke-linecap:square;stroke-linejoin:round;stroke-miterlimit:10;stroke-dasharray:none;stroke-opacity:1"
         d="M 162,457.25608 H 1166.4" /></g></g><g
     id="g1320"><path
       inkscape:connector-curvature="0"
       id="path1322"
       style="fill:#000000;fill-opacity:1;fill-rule:nonzero;stroke:#000000;stroke-width:0.80000001;stroke-linecap:butt;stroke-linejoin:round;stroke-miterlimit:10;stroke-dasharray:none;stroke-opacity:1"
       d="m 162,457.25608 h -3.5" /><text
       id="text1326"
       style="font-variant:normal;font-weight:normal;font-size:20px;font-family:DejaVuSans;-inkscape-font-specification:DejaVuSans;writing-mode:lr-tb;fill:#000000;fill-opacity:1;fill-rule:nonzero;stroke:none"
       transform="matrix(1,0,0,-1,123.20313,449.65452)"><tspan
         id="tspan1324"
         sodipodi:role="line"
         y="0"
         x="0 12.72 19.08">1.2</tspan></text>
<text
       id="text1330"
       style="font-variant:normal;font-weight:normal;font-size:20px;font-family:DejaVuSans;-inkscape-font-specification:DejaVuSans;writing-mode:lr-tb;fill:#000000;fill-opacity:1;fill-rule:nonzero;stroke:none"
       transform="matrix(0,1,1,0,115.04688,275.01812)"><tspan
         id="tspan1328"
         sodipodi:role="line"
         y="0"
         x="0 8.2200003 14.96">r/R</tspan></text>
</g><g
     id="g1332"><g
       clip-path="url(#clipPath1338)"
       id="g1334"><path
         inkscape:connector-curvature="0"
         id="path1340"
         style="fill:none;stroke:#00bfbf;stroke-width:1.5;stroke-linecap:square;stroke-linejoin:round;stroke-miterlimit:10;stroke-dasharray:none;stroke-opacity:1"
         d="m 1120.7455,91.767273 v 1.165831 2.073162 2.414649 2.612415 2.74457 2.83954 2.91085 2.96595 3.00942 3.04421 3.07241 3.09545 3.11444 3.13014 3.14324 3.15417 3.16334 3.17107 3.17757 3.18308 3.18773 3.1917 3.19505 3.19791 3.20034 3.20242 3.20419 3.20569 3.20698 3.20807 3.20901 3.2098 3.21046 3.21103 3.21149 3.21187 3.21218 3.21242 3.21259 3.2127 3.21276 3.21274 3.21268 3.21255 3.21235 3.21207 3.21172 3.21127 3.21071 3.21005 3.20923 3.20827 3.20712 3.20574 3.20412 3.2022 3.19994 3.19724 3.19408 3.19033 3.18589 3.18062 3.17438 3.16693 3.15806 3.14741 3.13461 3.11912 3.10025 3.07705 3.04823 3.01192 2.9653 2.9039 2.82016 2.69976 2.5113 2.16485 1.15194" /></g></g><g
     id="g1342"><g
       clip-path="url(#clipPath1348)"
       id="g1344"><path
         inkscape:connector-curvature="0"
         id="path1350"
         style="fill:none;stroke:#0000ff;stroke-width:1.5;stroke-linecap:square;stroke-linejoin:round;stroke-miterlimit:10;stroke-dasharray:none;stroke-opacity:1"
         d="m 754.59693,93.356015 v 3.657287 3.657288 3.65729 3.65728 3.65729 3.65729 3.65728 3.65729 3.65729 3.65728 3.65729 3.65729 3.65729 3.65728 3.65729 3.65729 3.65728 3.65729 3.65729 3.65729 3.65728 3.65729 3.65729 3.65728 3.65729 3.65729 3.65729 3.65728 3.65729 3.65729 3.65728 3.65729 3.65729 3.65728 3.65729 3.65729 3.65729 3.65728 3.65729 3.65729 3.65728 3.65729 3.65729 3.65729 3.65728 3.65729 3.65729 3.65728 3.65729 3.65729 3.65729 3.65728 3.65729 3.65729 3.65728 3.65729 3.65729 3.65728 3.65729 3.65729 3.65729 3.65728 3.65729 3.65729 3.65728 3.65729 3.65729 3.65729 3.65728 3.65729 3.65729 3.65729 3.65728 3.65729 3.65729 3.65728 3.65729 3.65729 3.65728" /></g></g><g
     id="g1352"><g
       clip-path="url(#clipPath1358)"
       id="g1354"><path
         inkscape:connector-curvature="0"
         id="path1360"
         style="fill:none;stroke:#008000;stroke-width:1.5;stroke-linecap:square;stroke-linejoin:round;stroke-miterlimit:10;stroke-dasharray:none;stroke-opacity:1"
         d="m 738.26932,93.356015 -148.63087,3.657287 -4.01249,3.657288 5.37155,3.65729 5.76936,3.65728 4.98467,3.65729 4.12367,3.65729 3.39095,3.65728 2.78728,3.65729 2.31233,3.65729 1.92032,3.65728 1.60123,3.65729 1.33987,3.65729 1.12451,3.65729 0.94609,3.65728 0.79758,3.65729 0.67344,3.65729 0.56933,3.65728 0.48174,3.65729 0.40787,3.65729 0.34543,3.65729 0.29255,3.65728 0.24769,3.65729 0.20958,3.65729 0.17717,3.65728 0.14955,3.65729 0.126,3.65729 0.10586,3.65729 0.0886,3.65728 0.0738,3.65729 0.0611,3.65729 0.0501,3.65728 0.0463,3.65729 0.0318,3.65729 0.0245,3.65728 0.0179,3.65729 0.0121,3.65729 0.007,3.65729 0.001,3.65728 -0.003,3.65729 -0.008,3.65729 -0.0132,3.65728 -0.0183,3.65729 -0.0238,3.65729 -0.0297,3.65729 -0.0362,3.65728 -0.0435,3.65729 -0.0517,3.65729 -0.0612,3.65728 -0.072,3.65729 -0.0846,3.65729 -0.0992,3.65729 -0.11615,3.65728 -0.13597,3.65729 -0.15918,3.65729 -0.18634,3.65728 -0.21821,3.65729 -0.25564,3.65729 -0.29966,3.65728 -0.3515,3.65729 -0.41265,3.65729 -0.48489,3.65729 -0.57042,3.65728 -0.67189,3.65729 -0.79262,3.65729 -0.93675,3.65728 -1.10943,3.65729 -1.31728,3.65729 -1.56883,3.65729 -1.87514,3.65728 -2.25094,3.65729 -2.71573,3.65729 -3.2957,3.65729 -4.02498,3.65728 -4.94431,3.65729 -6.08307,3.65729 -7.35685,3.65728 -7.98978,3.65729 -1.82407,3.65729 123.08749,3.65728" /></g></g><g
     id="g1362"><g
       clip-path="url(#clipPath1368)"
       id="g1364"><path
         inkscape:connector-curvature="0"
         id="path1370"
         style="fill:none;stroke:#ff0000;stroke-width:1.5;stroke-linecap:square;stroke-linejoin:round;stroke-miterlimit:10;stroke-dasharray:none;stroke-opacity:1"
         d="m 372.12079,91.849814 -148.63087,19.045106 -4.01249,23.23348 5.37155,7.46953 5.76936,5.46524 4.98467,4.80357 4.12367,4.47755 3.39095,4.28983 2.78728,4.17286 2.31233,4.09689 1.92032,4.04664 1.60123,4.01344 1.33987,3.99198 1.12451,3.97885 0.94609,3.97176 0.79758,3.96908 0.67344,3.96967 0.56933,3.9727 0.48175,3.97755 0.40786,3.98372 0.34543,3.99086 0.29255,3.99871 0.24769,4.00704 0.20959,4.01567 0.17716,4.02448 0.14956,4.03337 0.12599,4.04226 0.10587,4.05108 0.0886,4.05979 0.0738,4.06835 0.0611,4.07674 0.0501,4.08493 0.0464,4.09293 0.0318,4.1007 0.0245,4.10827 0.018,4.11561 0.012,4.12276 0.007,4.12969 10e-4,4.13643 -0.003,4.14299 -0.008,4.14938 -0.0132,4.15561 -0.0183,4.1617 -0.0238,4.16768 -0.0297,4.17355 -0.0362,4.17937 -0.0435,4.18513 -0.0517,4.19089 -0.0612,4.19666 -0.072,4.20251 -0.0846,4.20847 -0.0992,4.21459 -0.11615,4.22096 -0.13598,4.22763 -0.15918,4.23468 -0.18634,4.24225 -0.21821,4.25042 -0.25564,4.25937 -0.29966,4.26925 -0.3515,4.28029 -0.41265,4.29274 -0.48489,4.30693 -0.57042,4.32324 -0.67189,4.34219 -0.79262,4.36441 -0.93675,4.39073 -1.10943,4.42225 -1.31728,4.46042 -1.56883,4.5073 -1.87514,4.56579 -2.25093,4.64018 -2.71574,4.73715 -3.2957,4.86763 -4.02498,5.05111 -4.94431,5.32605 -6.08307,5.78192 -7.35685,6.69182 -7.98977,9.62828 -1.82408,13.94147 123.08749,8.11881" /></g></g><g
     id="g1372"><path
       inkscape:connector-curvature="0"
       id="path1374"
       style="fill:none;stroke:#000000;stroke-width:0.80000001;stroke-linecap:square;stroke-linejoin:miter;stroke-miterlimit:10;stroke-dasharray:none;stroke-opacity:1"
       d="M 162,72 V 506.88" /><path
       inkscape:connector-curvature="0"
       id="path1376"
       style="fill:none;stroke:#000000;stroke-width:0.80000001;stroke-linecap:square;stroke-linejoin:miter;stroke-miterlimit:10;stroke-dasharray:none;stroke-opacity:1"
       d="M 1166.4,72 V 506.88" /><path
       inkscape:connector-curvature="0"
       id="path1378"
       style="fill:none;stroke:#000000;stroke-width:0.80000001;stroke-linecap:square;stroke-linejoin:miter;stroke-miterlimit:10;stroke-dasharray:none;stroke-opacity:1"
       d="M 162,72 H 1166.4" /><path
       inkscape:connector-curvature="0"
       id="path1380"
       style="fill:none;stroke:#000000;stroke-width:0.80000001;stroke-linecap:square;stroke-linejoin:miter;stroke-miterlimit:10;stroke-dasharray:none;stroke-opacity:1"
       d="M 162,506.88 H 1166.4" /><path
       inkscape:connector-curvature="0"
       id="path1382"
       style="fill:#ffffff;fill-opacity:0.8;fill-rule:nonzero;stroke:#cccccc;stroke-width:1;stroke-linecap:butt;stroke-linejoin:miter;stroke-miterlimit:10;stroke-dasharray:none;stroke-opacity:0.8"
       d="m 982.4,371.80187 h 170 c 2.6667,0 4,1.33334 4,4 V 492.88 c 0,2.66667 -1.3333,4 -4,4 h -170 c -2.66667,0 -4,-1.33333 -4,-4 V 375.80187 c 0,-2.66666 1.33333,-4 4,-4 z" /><path
       inkscape:connector-curvature="0"
       id="path1384"
       style="fill:none;stroke:#00bfbf;stroke-width:1.5;stroke-linecap:square;stroke-linejoin:round;stroke-miterlimit:10;stroke-dasharray:none;stroke-opacity:1"
       d="m 986.4,480.67687 h 40" /><g
       transform="translate(1042.4,473.67687)"
       id="g1386"><text
         id="text1390"
         style="font-style:italic;font-variant:normal;font-size:20px;font-family:DejaVuSans;-inkscape-font-specification:DejaVuSans-Oblique;writing-mode:lr-tb;fill:#000000;fill-opacity:1;fill-rule:nonzero;stroke:none"
         transform="matrix(1,0,0,-1,0,0.421875)"><tspan
           id="tspan1388"
           y="0"
           x="0">x</tspan></text>
<text
         id="text1394"
         style="font-variant:normal;font-weight:normal;font-size:20px;font-family:DejaVuSans;-inkscape-font-specification:DejaVuSans;writing-mode:lr-tb;fill:#000000;fill-opacity:1;fill-rule:nonzero;stroke:none"
         transform="matrix(1,0,0,-1,11.835938,0.421875)"><tspan
           id="tspan1392"
           y="0"
           x="0">/</tspan></text>
<text
         id="text1398"
         style="font-style:italic;font-variant:normal;font-size:20px;font-family:DejaVuSans;-inkscape-font-specification:DejaVuSans-Oblique;writing-mode:lr-tb;fill:#000000;fill-opacity:1;fill-rule:nonzero;stroke:none"
         transform="matrix(1,0,0,-1,18.574219,0.421875)"><tspan
           id="tspan1396"
           y="0"
           x="0">x</tspan></text>
<text
         id="text1402"
         style="font-style:italic;font-variant:normal;font-size:14px;font-family:DejaVuSans;-inkscape-font-specification:DejaVuSans-Oblique;writing-mode:lr-tb;fill:#000000;fill-opacity:1;fill-rule:nonzero;stroke:none"
         transform="matrix(1,0,0,-1,30.410156,-2.859375)"><tspan
           id="tspan1400"
           y="0"
           x="0">d</tspan></text>
<text
         id="text1406"
         style="font-variant:normal;font-weight:normal;font-size:20px;font-family:DejaVuSans;-inkscape-font-specification:DejaVuSans;writing-mode:lr-tb;fill:#000000;fill-opacity:1;fill-rule:nonzero;stroke:none"
         transform="matrix(1,0,0,-1,43.740234,0.421875)"><tspan
           id="tspan1404"
           y="0"
           x="0">=</tspan></text>
<g
         transform="matrix(0.02,0,0,0.02,64.394531,0.421875)"
         id="g1408"><g
           id="g1410"><g
             clip-path="url(#clipPath1416)"
             id="g1412"><path
               inkscape:connector-curvature="0"
               id="path1418"
               style="fill:#000000;fill-opacity:1;fill-rule:nonzero;stroke:none"
               d="m 456,170 c -11,12 -24,31 -39,59 -22,-40 -43,-68 -62,-84 -24,-22 -55,-32 -92,-32 -44,0 -81,16 -110,50 -31,34 -46,79 -46,137 0,54 15,100 46,138 27,32 64,49 111,49 23,0 44,-5 62,-15 20,-11 37,-26 51,-44 13,-17 26,-36 40,-58 21,38 41,66 61,84 24,20 54,31 92,31 44,0 80,-17 110,-49 30,-35 46,-81 46,-137 0,-55 -16,-101 -46,-138 -28,-33 -65,-49 -111,-49 -24,0 -44,4 -62,14 -18,9 -35,24 -51,44 m -199,7 c 54,0 97,39 129,117 -42,85 -85,128 -129,128 -33,0 -57,-12 -73,-35 -18,-25 -27,-54 -27,-87 0,-37 9,-67 27,-89 18,-23 42,-34 73,-34 m 319,244 c -49,0 -92,-39 -129,-117 40,-86 83,-128 129,-128 32,0 57,11 73,35 18,25 27,54 27,88 0,36 -9,66 -27,88 -18,22 -43,34 -73,34" /></g></g></g></g><path
       inkscape:connector-curvature="0"
       id="path1420"
       style="fill:none;stroke:#0000ff;stroke-width:1.5;stroke-linecap:square;stroke-linejoin:round;stroke-miterlimit:10;stroke-dasharray:none;stroke-opacity:1"
       d="m 986.4,449.67687 h 40" /><g
       transform="translate(1042.4,442.67687)"
       id="g1422"><text
         id="text1426"
         style="font-style:italic;font-variant:normal;font-size:20px;font-family:DejaVuSans;-inkscape-font-specification:DejaVuSans-Oblique;writing-mode:lr-tb;fill:#000000;fill-opacity:1;fill-rule:nonzero;stroke:none"
         transform="matrix(1,0,0,-1,0,0.5609375)"><tspan
           id="tspan1424"
           y="0"
           x="0">x</tspan></text>
<text
         id="text1430"
         style="font-variant:normal;font-weight:normal;font-size:20px;font-family:DejaVuSans;-inkscape-font-specification:DejaVuSans;writing-mode:lr-tb;fill:#000000;fill-opacity:1;fill-rule:nonzero;stroke:none"
         transform="matrix(1,0,0,-1,11.835938,0.5609375)"><tspan
           id="tspan1428"
           y="0"
           x="0">/</tspan></text>
<text
         id="text1434"
         style="font-style:italic;font-variant:normal;font-size:20px;font-family:DejaVuSans;-inkscape-font-specification:DejaVuSans-Oblique;writing-mode:lr-tb;fill:#000000;fill-opacity:1;fill-rule:nonzero;stroke:none"
         transform="matrix(1,0,0,-1,18.574219,0.5609375)"><tspan
           id="tspan1432"
           y="0"
           x="0">x</tspan></text>
<text
         id="text1438"
         style="font-style:italic;font-variant:normal;font-size:14px;font-family:DejaVuSans;-inkscape-font-specification:DejaVuSans-Oblique;writing-mode:lr-tb;fill:#000000;fill-opacity:1;fill-rule:nonzero;stroke:none"
         transform="matrix(1,0,0,-1,30.410156,-2.7203125)"><tspan
           id="tspan1436"
           y="0"
           x="0">d</tspan></text>
<text
         id="text1442"
         style="font-variant:normal;font-weight:normal;font-size:20px;font-family:DejaVuSans;-inkscape-font-specification:DejaVuSans;writing-mode:lr-tb;fill:#000000;fill-opacity:1;fill-rule:nonzero;stroke:none"
         transform="matrix(1,0,0,-1,43.740234,0.5609375)"><tspan
           id="tspan1440"
           sodipodi:role="line"
           y="0"
           x="0 20.654297">=1</tspan></text>
<text
         id="text1446"
         style="font-variant:normal;font-weight:normal;font-size:14px;font-family:DejaVuSans;-inkscape-font-specification:DejaVuSans;writing-mode:lr-tb;fill:#000000;fill-opacity:1;fill-rule:nonzero;stroke:none"
         transform="matrix(1,0,0,-1,80.038086,8.2171875)"><tspan
           id="tspan1444"
           y="0"
           x="0">+</tspan></text>
</g><path
       inkscape:connector-curvature="0"
       id="path1448-78"
       style="fill:none;stroke:#008000;stroke-width:1.5;stroke-linecap:square;stroke-linejoin:round;stroke-miterlimit:10;stroke-dasharray:none;stroke-opacity:1"
       d="m 986.4,420.3175 h 40" /><g
       transform="translate(1042.4,413.3175)"
       id="g1450"><text
         id="text1454"
         style="font-style:italic;font-variant:normal;font-size:20px;font-family:DejaVuSans;-inkscape-font-specification:DejaVuSans-Oblique;writing-mode:lr-tb;fill:#000000;fill-opacity:1;fill-rule:nonzero;stroke:none"
         transform="matrix(1,0,0,-1,0,0.421875)"><tspan
           id="tspan1452"
           y="0"
           x="0">x</tspan></text>
<text
         id="text1458"
         style="font-variant:normal;font-weight:normal;font-size:20px;font-family:DejaVuSans;-inkscape-font-specification:DejaVuSans;writing-mode:lr-tb;fill:#000000;fill-opacity:1;fill-rule:nonzero;stroke:none"
         transform="matrix(1,0,0,-1,11.835938,0.421875)"><tspan
           id="tspan1456"
           y="0"
           x="0">/</tspan></text>
<text
         id="text1462"
         style="font-style:italic;font-variant:normal;font-size:20px;font-family:DejaVuSans;-inkscape-font-specification:DejaVuSans-Oblique;writing-mode:lr-tb;fill:#000000;fill-opacity:1;fill-rule:nonzero;stroke:none"
         transform="matrix(1,0,0,-1,18.574219,0.421875)"><tspan
           id="tspan1460"
           y="0"
           x="0">x</tspan></text>
<text
         id="text1466"
         style="font-style:italic;font-variant:normal;font-size:14px;font-family:DejaVuSans;-inkscape-font-specification:DejaVuSans-Oblique;writing-mode:lr-tb;fill:#000000;fill-opacity:1;fill-rule:nonzero;stroke:none"
         transform="matrix(1,0,0,-1,30.410156,-2.859375)"><tspan
           id="tspan1464"
           y="0"
           x="0">d</tspan></text>
<text
         id="text1470"
         style="font-variant:normal;font-weight:normal;font-size:20px;font-family:DejaVuSans;-inkscape-font-specification:DejaVuSans;writing-mode:lr-tb;fill:#000000;fill-opacity:1;fill-rule:nonzero;stroke:none"
         transform="matrix(1,0,0,-1,43.740234,0.421875)"><tspan
           id="tspan1468"
           sodipodi:role="line"
           y="0"
           x="0 20.654297">=1</tspan></text>
<g
         transform="matrix(0.014,0,0,0.014,80.038086,8.078125)"
         id="g1472"><g
           id="g1474"><g
             clip-path="url(#clipPath1480)"
             id="g1476"><path
               inkscape:connector-curvature="0"
               id="path1482"
               style="fill:#000000;fill-opacity:1;fill-rule:nonzero;stroke:none"
               d="M 106,355 H 732 V 272 H 106 v 83" /></g></g></g></g><path
       inkscape:connector-curvature="0"
       id="path1484"
       style="fill:none;stroke:#ff0000;stroke-width:1.5;stroke-linecap:square;stroke-linejoin:round;stroke-miterlimit:10;stroke-dasharray:none;stroke-opacity:1"
       d="m 986.4,390.95812 h 40" /><g
       transform="translate(1042.4,383.95812)"
       id="g1486"><text
         id="text1490"
         style="font-style:italic;font-variant:normal;font-size:20px;font-family:DejaVuSans;-inkscape-font-specification:DejaVuSans-Oblique;writing-mode:lr-tb;fill:#000000;fill-opacity:1;fill-rule:nonzero;stroke:none"
         transform="matrix(1,0,0,-1,0,0.421875)"><tspan
           id="tspan1488"
           y="0"
           x="0">x</tspan></text>
<text
         id="text1494"
         style="font-variant:normal;font-weight:normal;font-size:20px;font-family:DejaVuSans;-inkscape-font-specification:DejaVuSans;writing-mode:lr-tb;fill:#000000;fill-opacity:1;fill-rule:nonzero;stroke:none"
         transform="matrix(1,0,0,-1,11.835938,0.421875)"><tspan
           id="tspan1492"
           y="0"
           x="0">/</tspan></text>
<text
         id="text1498"
         style="font-style:italic;font-variant:normal;font-size:20px;font-family:DejaVuSans;-inkscape-font-specification:DejaVuSans-Oblique;writing-mode:lr-tb;fill:#000000;fill-opacity:1;fill-rule:nonzero;stroke:none"
         transform="matrix(1,0,0,-1,18.574219,0.421875)"><tspan
           id="tspan1496"
           y="0"
           x="0">x</tspan></text>
<text
         id="text1502"
         style="font-style:italic;font-variant:normal;font-size:14px;font-family:DejaVuSans;-inkscape-font-specification:DejaVuSans-Oblique;writing-mode:lr-tb;fill:#000000;fill-opacity:1;fill-rule:nonzero;stroke:none"
         transform="matrix(1,0,0,-1,30.410156,-2.859375)"><tspan
           id="tspan1500"
           y="0"
           x="0">d</tspan></text>
<text
         id="text1506"
         style="font-variant:normal;font-weight:normal;font-size:20px;font-family:DejaVuSans;-inkscape-font-specification:DejaVuSans;writing-mode:lr-tb;fill:#000000;fill-opacity:1;fill-rule:nonzero;stroke:none"
         transform="matrix(1,0,0,-1,43.740234,0.421875)"><tspan
           id="tspan1504"
           y="0"
           x="0">=</tspan></text>
<g
         transform="matrix(0.02,0,0,0.02,68.291016,0.421875)"
         id="g1508"><g
           id="g1510"><g
             clip-path="url(#clipPath1516)"
             id="g1512"><path
               inkscape:connector-curvature="0"
               id="path1518"
               style="fill:#000000;fill-opacity:1;fill-rule:nonzero;stroke:none"
               d="M 106,355 H 732 V 272 H 106 v 83" /></g></g></g><g
         transform="matrix(0.02,0,0,0.02,88.945312,0.421875)"
         id="g1520"><g
           id="g1522"><g
             clip-path="url(#clipPath1528)"
             id="g1524"><path
               inkscape:connector-curvature="0"
               id="path1530"
               style="fill:#000000;fill-opacity:1;fill-rule:nonzero;stroke:none"
               d="m 456,170 c -11,12 -24,31 -39,59 -22,-40 -43,-68 -62,-84 -24,-22 -55,-32 -92,-32 -44,0 -81,16 -110,50 -31,34 -46,79 -46,137 0,54 15,100 46,138 27,32 64,49 111,49 23,0 44,-5 62,-15 20,-11 37,-26 51,-44 13,-17 26,-36 40,-58 21,38 41,66 61,84 24,20 54,31 92,31 44,0 80,-17 110,-49 30,-35 46,-81 46,-137 0,-55 -16,-101 -46,-138 -28,-33 -65,-49 -111,-49 -24,0 -44,4 -62,14 -18,9 -35,24 -51,44 m -199,7 c 54,0 97,39 129,117 -42,85 -85,128 -129,128 -33,0 -57,-12 -73,-35 -18,-25 -27,-54 -27,-87 0,-37 9,-67 27,-89 18,-23 42,-34 73,-34 m 319,244 c -49,0 -92,-39 -129,-117 40,-86 83,-128 129,-128 32,0 57,11 73,35 18,25 27,54 27,88 0,36 -9,66 -27,88 -18,22 -43,34 -73,34" /></g></g></g></g></g></g><path
   style="fill:none;stroke:#000000;stroke-width:1.70078743;stroke-linecap:butt;stroke-linejoin:miter;stroke-miterlimit:4;stroke-dasharray:none;stroke-opacity:1;marker-end:url(#Arrow1Lend)"
   d="m 792.74868,-40.54005 317.86522,-0.875663"
   id="path1443"
   inkscape:connector-curvature="0" /><path
   style="fill:none;stroke:#000000;stroke-width:1.70078743;stroke-linecap:butt;stroke-linejoin:miter;stroke-miterlimit:4;stroke-dasharray:none;stroke-opacity:1;marker-end:url(#Arrow1Lend-0)"
   d="M 569.74453,-37.0701 251.87932,-37.94577"
   id="path1443-1"
   inkscape:connector-curvature="0" /><g
   ns0:jacobian_sqrt="1.688109"
   ns0:alignment="middle center"
   ns0:scale="1.26608168518"
   ns0:preamble="default_packages.tex"
   ns0:text="$\\Delta H = -0.1$ [kPa]\n$\\Delta H = 0.1$ [kPa]\n"
   ns0:pdfconverter="pstoedit"
   ns0:texconverter="pdflatex"
   ns0:version="0.11.0"
   word-spacing="normal"
   letter-spacing="normal"
   font-size-adjust="none"
   font-stretch="normal"
   font-weight="normal"
   font-variant="normal"
   font-style="normal"
   stroke-miterlimit="10.433"
   xml:space="preserve"
   transform="matrix(1.688109,0,0,1.688109,270.84795,-1339.5558)"
   id="content"
   style="font-style:normal;font-variant:normal;font-weight:normal;font-stretch:normal;letter-spacing:normal;word-spacing:normal;text-anchor:start;fill:none;fill-opacity:1;fill-rule:evenodd;stroke:#000000;stroke-linecap:butt;stroke-linejoin:miter;stroke-miterlimit:10.43299961;stroke-dasharray:none;stroke-dashoffset:0;stroke-opacity:1">












<g
   id="g2044"
   transform="matrix(1.708283,0,0,1.9225173,-226.28069,-621.34559)"><path
     style="fill:#000000;stroke-width:0"
     inkscape:connector-curvature="0"
     d="m 153.1,714.06 v 0.01 l -0.01,0.02 -0.01,0.01 v 0.01 l -0.01,0.01 v 0.01 h -0.01 v 0.01 l -0.01,0.01 v 0.01 l -0.01,0.01 v 0 l -0.01,0.01 h -0.01 v 0.01 l -0.01,0.01 H 153 v 0 l -0.01,0.01 h -0.01 l -0.01,0.01 h -0.01 -0.01 -0.01 l -0.01,0.01 h -0.01 -0.01 -0.02 -0.01 -0.01 -0.02 -0.01 c -0.16,0 -0.19,-0.04 -0.25,-0.17 l -0.07,-0.81 2.68,-5.37 h -5.36 l 2.68,5.37 0.07,0.81 -3.36,-6.73 c -0.05,-0.1 -0.05,-0.11 -0.05,-0.13 0,-0.07 0.06,-0.07 0.22,-0.07 h 6.89 c 0.16,0 0.22,0 0.22,0.07 0,0.02 0,0.03 -0.05,0.13 z"
     id="path1952" /><path
     style="fill:#000000;stroke-width:0"
     inkscape:connector-curvature="0"
     d="m 164.59,713.14 0.01,0.03 0.01,0.04 0.01,0.03 0.01,0.02 0.01,0.03 v 0.03 l 0.01,0.02 0.01,0.03 0.01,0.02 0.01,0.02 0.01,0.02 0.02,0.02 0.01,0.01 0.02,0.02 0.01,0.02 0.02,0.01 0.02,0.01 0.03,0.01 0.02,0.02 0.03,0.01 h 0.03 l 0.03,0.01 0.02,0.01 h 0.01 0.02 l 0.02,0.01 h 0.02 0.02 0.02 l 0.03,0.01 h 0.02 0.02 0.03 0.02 0.03 l 0.03,0.01 h 0.03 0.03 0.03 0.03 0.03 0.03 c 0.27,0 0.35,0 0.35,0.19 0,0.11 -0.11,0.11 -0.14,0.11 -0.29,0 -0.99,-0.03 -1.27,-0.03 -0.3,0 -1,0.03 -1.28,0.03 -0.08,0 -0.19,0 -0.19,-0.19 0,-0.11 0.08,-0.11 0.28,-0.11 0.02,0 0.21,0 0.38,-0.03 0.17,-0.02 0.26,-0.03 0.26,-0.16 0,-0.03 -0.01,-0.06 -0.04,-0.19 l -0.6,-2.42 h -3.03 l 0.59,2.33 c 0.08,0.36 0.11,0.47 0.83,0.47 0.27,0 0.35,0 0.35,0.19 0,0.11 -0.11,0.11 -0.14,0.11 -0.29,0 -1,-0.03 -1.27,-0.03 -0.3,0 -1,0.03 -1.28,0.03 -0.09,0 -0.2,0 -0.2,-0.19 0,-0.11 0.09,-0.11 0.28,-0.11 0.01,0 0.22,0 0.37,-0.03 0.19,-0.02 0.28,-0.03 0.28,-0.16 0,-0.03 -0.01,-0.06 -0.04,-0.19 l -1.33,-5.32 c -0.11,-0.39 -0.13,-0.47 -0.91,-0.47 -0.17,0 -0.26,0 -0.26,-0.21 0,-0.1 0.11,-0.1 0.14,-0.1 0.26,0 0.98,0.03 1.25,0.03 0.22,0 0.43,-0.02 0.64,-0.02 0.22,0 0.44,-0.01 0.64,-0.01 0.09,0 0.2,0 0.2,0.2 0,0.11 -0.09,0.11 -0.28,0.11 -0.36,0 -0.64,0 -0.64,0.17 0,0.06 0.02,0.11 0.03,0.17 l 0.67,2.72 h 3.03 c -0.42,-1.64 -0.64,-2.59 -0.68,-2.73 -0.1,-0.33 -0.28,-0.33 -0.91,-0.33 -0.14,0 -0.23,0 -0.23,-0.21 0,-0.1 0.12,-0.1 0.14,-0.1 0.28,0 0.98,0.03 1.26,0.03 0.21,0 0.42,-0.02 0.63,-0.02 0.22,0 0.43,-0.01 0.65,-0.01 0.08,0 0.19,0 0.19,0.2 0,0.11 -0.08,0.11 -0.26,0.11 -0.38,0 -0.66,0 -0.66,0.17 0,0.06 0.03,0.11 0.03,0.17 z"
     id="path1954" /><path
     style="fill:#000000;stroke-width:0"
     inkscape:connector-curvature="0"
     d="m 175.7,710.38 h 0.03 0.02 0.03 0.02 0.01 0.01 0.02 0.01 l 0.01,0.01 h 0.02 0.01 l 0.01,0.01 h 0.02 l 0.01,0.01 h 0.01 l 0.01,0.01 h 0.01 l 0.01,0.01 0.01,0.01 0.01,0.01 v 0.01 H 176 v 0.01 0 l 0.01,0.01 v 0 0.01 0.01 h 0.01 v 0.01 0.01 0.01 0 0.01 l 0.01,0.01 v 0.01 0.01 0.01 c 0,0.19 -0.19,0.19 -0.33,0.19 h -5.94 c -0.14,0 -0.33,0 -0.33,-0.19 0,-0.2 0.19,-0.2 0.33,-0.2 z"
     id="path1956" /><path
     style="fill:#000000;stroke-width:0"
     inkscape:connector-curvature="0"
     d="m 175.7,708.45 h 0.03 0.02 0.03 0.02 l 0.01,0.01 h 0.01 0.02 0.01 0.01 l 0.02,0.01 h 0.01 0.01 l 0.02,0.01 h 0.01 l 0.01,0.01 h 0.01 l 0.01,0.01 0.01,0.01 h 0.01 l 0.01,0.01 0.01,0.01 v 0.01 0 l 0.01,0.01 v 0 0.01 0.01 h 0.01 v 0.01 0.01 0 0.01 0.01 l 0.01,0.01 v 0 0.01 0.01 c 0,0.2 -0.19,0.2 -0.33,0.2 h -5.94 c -0.14,0 -0.33,0 -0.33,-0.2 0,-0.19 0.19,-0.19 0.33,-0.19 z"
     id="path1958" /><path
     style="fill:#000000;stroke-width:0"
     inkscape:connector-curvature="0"
     d="m 185.94,709.41 h 0.03 0.03 0.03 0.02 0.01 0.02 0.01 0.02 l 0.01,0.01 h 0.02 0.01 l 0.01,0.01 h 0.01 l 0.02,0.01 h 0.01 l 0.01,0.01 0.01,0.01 h 0.01 l 0.01,0.01 v 0.01 l 0.01,0.01 v 0.01 h 0.01 v 0.01 0 l 0.01,0.01 v 0.01 0 0.01 l 0.01,0.01 v 0.01 0.01 0 0.01 0.01 0.01 0.01 c 0,0.2 -0.17,0.2 -0.34,0.2 h -5.38 c -0.17,0 -0.34,0 -0.34,-0.2 0,-0.2 0.17,-0.2 0.34,-0.2 z"
     id="path1960" /><path
     style="fill:#000000;stroke-width:0"
     inkscape:connector-curvature="0"
     d="m 191.7,710.3 v 0.15 0.15 l -0.01,0.14 v 0.15 l -0.01,0.15 -0.01,0.15 -0.02,0.15 -0.02,0.14 -0.02,0.15 -0.03,0.15 -0.03,0.14 -0.04,0.14 -0.04,0.15 -0.05,0.14 -0.05,0.14 -0.03,0.07 -0.03,0.07 c -0.46,0.95 -1.27,1.1 -1.69,1.1 l -0.02,-0.21 c 0.33,0 0.99,-0.18 1.18,-1.16 0.11,-0.56 0.11,-1.31 0.11,-1.94 0,-0.75 0,-1.42 -0.11,-2.06 -0.16,-0.94 -0.72,-1.23 -1.18,-1.23 v 0 c -0.37,0 -0.96,0.25 -1.14,1.2 -0.11,0.59 -0.11,1.51 -0.11,2.09 0,0.64 0,1.3 0.08,1.83 0.19,1.19 0.92,1.27 1.17,1.27 l 0.02,0.21 c -0.59,0 -1.33,-0.25 -1.73,-1.17 -0.32,-0.68 -0.36,-1.47 -0.36,-2.26 0,-0.74 0.03,-1.63 0.43,-2.39 0.44,-0.8 1.16,-1 1.64,-1 0.55,0 1.3,0.2 1.74,1.15 0.31,0.69 0.36,1.46 0.36,2.24 z"
     id="path1962" /><path
     style="fill:#000000;stroke-width:0"
     inkscape:connector-curvature="0"
     d="m 194.02,707.66 v 0.02 0.03 0.02 l -0.01,0.03 v 0.02 l -0.01,0.03 -0.01,0.02 -0.01,0.03 -0.01,0.02 -0.01,0.02 -0.01,0.02 -0.02,0.02 -0.01,0.02 -0.02,0.02 -0.01,0.02 -0.02,0.02 -0.02,0.02 -0.02,0.01 -0.02,0.02 -0.02,0.01 -0.02,0.02 -0.02,0.01 -0.03,0.01 -0.02,0.01 -0.02,0.01 -0.03,0.01 -0.02,0.01 h -0.03 l -0.03,0.01 h -0.02 -0.03 -0.03 c -0.28,0 -0.51,-0.23 -0.51,-0.51 0,-0.3 0.23,-0.53 0.51,-0.53 0.3,0 0.53,0.23 0.53,0.53 z"
     id="path1964" /><path
     style="fill:#000000;stroke-width:0"
     inkscape:connector-curvature="0"
     d="m 197.81,713.48 v 0.01 0.02 0.01 0.01 0.01 0 0.01 0.01 0.01 0.01 0.01 0 0.01 0.01 0.01 0 l -0.01,0.01 v 0 0.02 0.01 0.01 l -0.01,0.01 v 0 l -0.01,0.01 v 0.01 h -0.01 v 0.01 h -0.01 l -0.01,0.01 v 0 h -0.01 v 0 h -0.01 v 0 l -0.01,0.01 v 0 h -0.01 -0.01 v 0 h -0.01 -0.01 v 0 h -0.01 -0.01 -0.01 -0.01 -0.01 -0.01 v 0 h -0.01 -0.01 -0.02 -0.01 c -0.61,-0.62 -1.48,-0.62 -1.79,-0.62 v -0.31 c 0.18,0 0.78,0 1.29,0.26 v -5.15 c 0,-0.36 -0.03,-0.47 -0.92,-0.47 h -0.33 v -0.31 c 0.36,0.03 1.22,0.03 1.61,0.03 0.41,0 1.27,0 1.61,-0.03 v 0.31 h -0.31 c -0.89,0 -0.92,0.11 -0.92,0.47 z"
     id="path1966" /><polygon
     style="fill:#000000;stroke-width:0"
     points="205.71,714.58 204.35,714.58 204.35,704.64 205.71,704.64 205.71,705.03 204.75,705.03 204.75,714.17 205.71,714.17 "
     id="polygon1968" /><path
     style="fill:#000000;stroke-width:0"
     inkscape:connector-curvature="0"
     d="m 207,707.88 v -0.04 l -0.01,-0.04 v -0.04 -0.03 -0.03 l -0.01,-0.03 v -0.02 l -0.01,-0.03 -0.01,-0.02 -0.01,-0.02 -0.01,-0.02 -0.01,-0.02 -0.02,-0.01 -0.01,-0.01 -0.02,-0.02 -0.02,-0.01 -0.02,-0.01 -0.03,-0.01 h -0.02 l -0.03,-0.01 h -0.03 l -0.03,-0.01 h -0.04 -0.01 l -0.02,-0.01 h -0.02 -0.02 -0.02 -0.03 -0.02 -0.02 -0.02 -0.03 -0.02 -0.03 -0.03 -0.02 -0.03 -0.03 -0.03 -0.03 v -0.31 c 0.33,0.01 0.8,0.03 1.08,0.03 0.29,0 0.7,-0.02 1.09,-0.03 v 0.31 c -0.67,0 -0.78,0 -0.78,0.44 v 1.03 l 0.64,0.54 c 0.77,-1.06 1.19,-1.61 1.19,-1.79 0,-0.19 -0.17,-0.22 -0.36,-0.22 v -0.31 c 0.28,0.01 0.86,0.03 1.08,0.03 0.28,0 0.56,-0.02 0.86,-0.03 v 0.31 c -0.38,0 -0.6,0 -0.97,0.51 l -1.27,1.78 c 0,0.02 -0.04,0.08 -0.04,0.11 0,0.05 0.7,0.64 0.79,0.72 0.63,0.5 1.05,0.53 1.25,0.53 v 0.32 c -0.28,-0.03 -0.4,-0.03 -0.69,-0.03 -0.35,0 -0.98,0.01 -1.1,0.03 v -0.32 c 0.18,0 0.28,-0.11 0.28,-0.25 0,-0.18 -0.14,-0.31 -0.22,-0.37 l -1.41,-1.22 v 4.77 l -1.42,-0.11 v -0.3 c 0.69,0 0.77,-0.08 0.77,-0.56 z"
     id="path1970" /><path
     style="fill:#000000;stroke-width:0"
     inkscape:connector-curvature="0"
     d="m 213.46,710.27 -0.03,0.25 v 2.68 c 0,0.33 0.03,0.41 0.5,0.41 h 0.87 c 1.58,0 1.58,-1.06 1.58,-1.55 0,-0.47 0,-1.54 -1.58,-1.54 h -1.37 l 0.03,-0.25 h 1.69 c 1.18,0 2.26,0.79 2.26,1.79 0,0.97 -0.98,1.85 -2.34,1.85 h -3.52 v -0.3 h 0.25 c 0.75,0 0.78,-0.11 0.78,-0.47 v -5.23 c 0,-0.36 -0.03,-0.47 -0.78,-0.47 h -0.25 v -0.31 c 0.36,0.03 1.1,0.03 1.47,0.03 0.38,0 1.13,0 1.47,-0.03 v 0.31 h -0.24 c -0.76,0 -0.79,0.11 -0.79,0.47 z"
     id="path1972" /><path
     style="fill:#000000;stroke-width:0"
     inkscape:connector-curvature="0"
     d="m 221.03,707.88 v -0.04 l 0.01,-0.04 v -0.04 l 0.01,-0.03 0.01,-0.04 0.01,-0.04 0.01,-0.03 0.01,-0.04 0.02,-0.03 0.01,-0.04 0.02,-0.03 0.02,-0.03 0.02,-0.04 0.02,-0.03 0.02,-0.03 0.03,-0.03 0.02,-0.03 0.03,-0.02 0.02,-0.03 0.03,-0.02 0.03,-0.03 0.03,-0.02 0.04,-0.02 0.03,-0.02 0.03,-0.01 0.04,-0.02 0.04,-0.01 0.04,-0.01 0.04,-0.01 h 0.04 l 0.04,-0.01 h 0.04 c 0.22,0 0.81,0.14 0.81,0.96 v 0.54 h -0.23 v -0.54 c 0,-0.58 -0.25,-0.64 -0.36,-0.64 -0.33,0 -0.37,0.45 -0.37,0.5 v 1.98 c 0,0.42 0,0.8 -0.36,1.17 -0.39,0.39 -0.88,0.55 -1.36,0.55 -0.82,0 -1.5,-0.47 -1.5,-1.13 0,-0.29 0.2,-0.47 0.45,-0.47 0.28,0 0.47,0.21 0.47,0.46 0,0.12 -0.06,0.45 -0.52,0.47 0.27,0.34 0.77,0.45 1.08,0.45 0.49,0 1.05,-0.39 1.05,-1.28 v -0.36 -0.2 -1 c 0,-0.94 -0.72,-1.29 -1.16,-1.29 -0.48,0 -0.89,0.35 -0.89,0.85 0,0.55 0.41,1.37 2.05,1.44 v 0 0.2 c -0.5,-0.03 -1.2,-0.06 -1.83,-0.36 -0.73,-0.34 -0.98,-0.86 -0.98,-1.3 0,-0.79 0.95,-1.04 1.57,-1.04 0.66,0 1.13,0.39 1.32,0.86 z"
     id="path1974" /><polygon
     style="fill:#000000;stroke-width:0"
     points="222.91,705.03 222.91,704.64 224.27,704.64 224.27,714.58 222.91,714.58 222.91,714.17 223.88,714.17 223.88,705.03 "
     id="polygon1976" /></g>











<g
   id="g2058"
   transform="matrix(1.7393832,0,0,2.0958946,-55.903141,-743.68141)"><path
     style="fill:#000000;stroke-width:0"
     inkscape:connector-curvature="0"
     d="m 233.17,714.06 v 0.01 l -0.01,0.02 -0.01,0.01 v 0.01 l -0.01,0.01 v 0.01 h -0.01 v 0.01 l -0.01,0.01 v 0.01 l -0.01,0.01 v 0 l -0.01,0.01 h -0.01 v 0.01 l -0.01,0.01 h -0.01 v 0 l -0.01,0.01 h -0.01 l -0.01,0.01 h -0.01 -0.01 -0.01 l -0.01,0.01 h -0.01 -0.01 -0.02 -0.01 -0.01 -0.02 -0.01 c -0.16,0 -0.19,-0.04 -0.25,-0.17 l -0.07,-0.81 2.68,-5.37 h -5.36 l 2.68,5.37 0.07,0.81 -3.36,-6.73 c -0.05,-0.1 -0.05,-0.11 -0.05,-0.13 0,-0.07 0.06,-0.07 0.22,-0.07 h 6.89 c 0.16,0 0.22,0 0.22,0.07 0,0.02 0,0.03 -0.05,0.13 z"
     id="path1978" /><path
     style="fill:#000000;stroke-width:0"
     inkscape:connector-curvature="0"
     d="m 244.67,713.14 0.01,0.03 v 0.04 l 0.01,0.03 0.01,0.02 0.01,0.03 0.01,0.03 0.01,0.02 0.01,0.03 0.01,0.02 0.01,0.02 0.01,0.02 0.01,0.02 0.02,0.01 0.01,0.02 0.02,0.02 0.02,0.01 0.02,0.01 0.02,0.01 0.03,0.02 0.02,0.01 h 0.03 l 0.03,0.01 0.02,0.01 h 0.02 0.02 l 0.02,0.01 h 0.02 0.02 0.02 l 0.02,0.01 h 0.02 0.03 0.02 0.03 0.02 l 0.03,0.01 h 0.03 0.03 0.03 0.03 0.03 0.04 c 0.26,0 0.34,0 0.34,0.19 0,0.11 -0.11,0.11 -0.14,0.11 -0.28,0 -0.99,-0.03 -1.27,-0.03 -0.29,0 -1,0.03 -1.28,0.03 -0.08,0 -0.19,0 -0.19,-0.19 0,-0.11 0.08,-0.11 0.29,-0.11 0.01,0 0.2,0 0.37,-0.03 0.17,-0.02 0.27,-0.03 0.27,-0.16 0,-0.03 -0.02,-0.06 -0.05,-0.19 l -0.59,-2.42 h -3.04 l 0.6,2.33 c 0.08,0.36 0.11,0.47 0.83,0.47 0.26,0 0.34,0 0.34,0.19 0,0.11 -0.11,0.11 -0.14,0.11 -0.28,0 -1,-0.03 -1.27,-0.03 -0.29,0 -1,0.03 -1.28,0.03 -0.09,0 -0.2,0 -0.2,-0.19 0,-0.11 0.09,-0.11 0.28,-0.11 0.02,0 0.22,0 0.38,-0.03 0.18,-0.02 0.28,-0.03 0.28,-0.16 0,-0.03 -0.02,-0.06 -0.05,-0.19 l -1.33,-5.32 c -0.11,-0.39 -0.12,-0.47 -0.9,-0.47 -0.18,0 -0.27,0 -0.27,-0.21 0,-0.1 0.11,-0.1 0.14,-0.1 0.27,0 0.98,0.03 1.25,0.03 0.22,0 0.44,-0.02 0.64,-0.02 0.22,0 0.44,-0.01 0.64,-0.01 0.1,0 0.2,0 0.2,0.2 0,0.11 -0.09,0.11 -0.28,0.11 -0.36,0 -0.64,0 -0.64,0.17 0,0.06 0.02,0.11 0.03,0.17 l 0.68,2.72 h 3.03 c -0.42,-1.64 -0.64,-2.59 -0.69,-2.73 -0.09,-0.33 -0.28,-0.33 -0.91,-0.33 -0.14,0 -0.23,0 -0.23,-0.21 0,-0.1 0.12,-0.1 0.14,-0.1 0.28,0 0.98,0.03 1.27,0.03 0.2,0 0.42,-0.02 0.62,-0.02 0.22,0 0.44,-0.01 0.66,-0.01 0.07,0 0.18,0 0.18,0.2 0,0.11 -0.07,0.11 -0.26,0.11 -0.38,0 -0.66,0 -0.66,0.17 0,0.06 0.03,0.11 0.03,0.17 z"
     id="path1980" /><path
     style="fill:#000000;stroke-width:0"
     inkscape:connector-curvature="0"
     d="m 255.77,710.38 h 0.03 0.03 0.03 0.01 0.01 0.02 0.01 0.02 l 0.01,0.01 h 0.01 0.02 l 0.01,0.01 h 0.01 l 0.01,0.01 h 0.01 l 0.01,0.01 h 0.02 v 0.01 l 0.01,0.01 0.01,0.01 0.01,0.01 v 0 0.01 h 0.01 v 0.01 0 l 0.01,0.01 v 0.01 0 0.01 l 0.01,0.01 v 0.01 0 0.01 0.01 0.01 0.01 0.01 c 0,0.19 -0.19,0.19 -0.33,0.19 h -5.93 c -0.14,0 -0.33,0 -0.33,-0.19 0,-0.2 0.19,-0.2 0.33,-0.2 z"
     id="path1982" /><path
     style="fill:#000000;stroke-width:0"
     inkscape:connector-curvature="0"
     d="m 255.77,708.45 h 0.03 0.03 0.03 l 0.02,0.01 h 0.02 0.01 0.02 0.01 l 0.01,0.01 h 0.02 0.01 l 0.01,0.01 H 256 l 0.01,0.01 h 0.01 l 0.02,0.01 v 0.01 h 0.01 l 0.01,0.01 0.01,0.01 v 0.01 h 0.01 v 0.01 0 l 0.01,0.01 v 0.01 0 0.01 l 0.01,0.01 v 0 0.01 0.01 0.01 0 0.01 0.01 c 0,0.2 -0.19,0.2 -0.33,0.2 h -5.93 c -0.14,0 -0.33,0 -0.33,-0.2 0,-0.19 0.19,-0.19 0.33,-0.19 z"
     id="path1984" /><path
     style="fill:#000000;stroke-width:0"
     inkscape:connector-curvature="0"
     d="m 264.02,710.3 v 0.15 0.15 0.14 l -0.01,0.15 -0.01,0.15 -0.01,0.15 -0.01,0.15 -0.02,0.14 -0.03,0.15 -0.02,0.15 -0.03,0.14 -0.04,0.14 -0.04,0.15 -0.05,0.14 -0.06,0.14 -0.03,0.07 -0.03,0.07 c -0.45,0.95 -1.26,1.1 -1.68,1.1 l -0.02,-0.21 c 0.33,0 0.98,-0.18 1.17,-1.16 0.11,-0.56 0.11,-1.31 0.11,-1.94 0,-0.75 0,-1.42 -0.11,-2.06 -0.15,-0.94 -0.72,-1.23 -1.17,-1.23 v 0 c -0.38,0 -0.97,0.25 -1.14,1.2 -0.11,0.59 -0.11,1.51 -0.11,2.09 0,0.64 0,1.3 0.08,1.83 0.19,1.19 0.92,1.27 1.17,1.27 l 0.02,0.21 c -0.6,0 -1.33,-0.25 -1.74,-1.17 -0.31,-0.68 -0.36,-1.47 -0.36,-2.26 0,-0.74 0.03,-1.63 0.44,-2.39 0.44,-0.8 1.16,-1 1.64,-1 0.55,0 1.3,0.2 1.73,1.15 0.32,0.69 0.36,1.46 0.36,2.24 z"
     id="path1986" /><path
     style="fill:#000000;stroke-width:0"
     inkscape:connector-curvature="0"
     d="m 266.35,707.66 v 0.02 0.03 0.02 l -0.01,0.03 v 0.02 l -0.01,0.03 -0.01,0.02 -0.01,0.03 -0.01,0.02 -0.01,0.02 -0.01,0.02 -0.02,0.02 -0.01,0.02 -0.02,0.02 -0.02,0.02 -0.01,0.02 -0.02,0.02 -0.02,0.01 -0.02,0.02 -0.02,0.01 -0.02,0.02 -0.03,0.01 -0.02,0.01 -0.02,0.01 -0.03,0.01 -0.02,0.01 -0.03,0.01 h -0.02 l -0.03,0.01 h -0.03 -0.02 -0.03 c -0.28,0 -0.52,-0.23 -0.52,-0.51 0,-0.3 0.24,-0.53 0.52,-0.53 0.3,0 0.53,0.23 0.53,0.53 z"
     id="path1988" /><path
     style="fill:#000000;stroke-width:0"
     inkscape:connector-curvature="0"
     d="m 270.13,713.48 v 0.01 0.02 0.01 0.01 0.01 0 0.01 0.01 0.01 0.01 0.01 0 0.01 0.01 0.01 0 0.01 0 0.02 l -0.01,0.01 v 0.01 0.01 h -0.01 v 0.01 l -0.01,0.01 v 0 l -0.01,0.01 h -0.01 v 0.01 h -0.01 v 0 h -0.01 v 0 h -0.01 v 0.01 h -0.01 -0.01 v 0 h -0.01 -0.01 v 0 h -0.01 -0.01 -0.01 v 0 h -0.01 -0.01 -0.01 -0.01 -0.01 -0.01 -0.01 -0.01 c -0.61,-0.62 -1.49,-0.62 -1.8,-0.62 v -0.31 c 0.19,0 0.78,0 1.3,0.26 v -5.15 c 0,-0.36 -0.03,-0.47 -0.92,-0.47 h -0.33 v -0.31 c 0.36,0.03 1.22,0.03 1.61,0.03 0.4,0 1.26,0 1.61,-0.03 v 0.31 h -0.32 c -0.89,0 -0.92,0.11 -0.92,0.47 z"
     id="path1990" /><polygon
     style="fill:#000000;stroke-width:0"
     points="278.04,714.58 276.68,714.58 276.68,704.64 278.04,704.64 278.04,705.03 277.07,705.03 277.07,714.17 278.04,714.17 "
     id="polygon1992" /><path
     style="fill:#000000;stroke-width:0"
     inkscape:connector-curvature="0"
     d="m 279.32,707.88 v -0.04 -0.04 -0.04 -0.03 l -0.01,-0.03 v -0.03 l -0.01,-0.02 v -0.03 l -0.01,-0.02 -0.01,-0.02 -0.01,-0.02 -0.02,-0.02 -0.01,-0.01 -0.02,-0.01 -0.01,-0.02 -0.02,-0.01 -0.02,-0.01 -0.03,-0.01 h -0.02 l -0.03,-0.01 h -0.03 l -0.03,-0.01 h -0.04 l -0.03,-0.01 h -0.02 -0.02 -0.03 -0.02 -0.02 -0.02 -0.03 -0.02 -0.02 -0.03 -0.03 -0.02 -0.03 -0.03 -0.03 -0.03 v -0.31 c 0.33,0.01 0.8,0.03 1.08,0.03 0.29,0 0.7,-0.02 1.09,-0.03 v 0.31 c -0.67,0 -0.78,0 -0.78,0.44 v 1.03 l 0.64,0.54 c 0.77,-1.06 1.19,-1.61 1.19,-1.79 0,-0.19 -0.17,-0.22 -0.36,-0.22 v -0.31 c 0.28,0.01 0.86,0.03 1.08,0.03 0.28,0 0.56,-0.02 0.86,-0.03 v 0.31 c -0.38,0 -0.6,0 -0.97,0.51 l -1.27,1.78 c 0,0.02 -0.05,0.08 -0.05,0.11 0,0.05 0.71,0.64 0.8,0.72 0.63,0.5 1.05,0.53 1.25,0.53 v 0.32 c -0.28,-0.03 -0.41,-0.03 -0.69,-0.03 -0.36,0 -0.98,0.01 -1.11,0.03 v -0.32 c 0.19,0 0.29,-0.11 0.29,-0.25 0,-0.18 -0.15,-0.31 -0.22,-0.37 l -1.41,-1.22 v 4.77 l -1.42,-0.11 v -0.3 c 0.69,0 0.76,-0.08 0.76,-0.56 z"
     id="path1994" /><path
     style="fill:#000000;stroke-width:0"
     inkscape:connector-curvature="0"
     d="m 285.79,710.27 -0.04,0.25 v 2.68 c 0,0.33 0.04,0.41 0.5,0.41 h 0.88 c 1.58,0 1.58,-1.06 1.58,-1.55 0,-0.47 0,-1.54 -1.58,-1.54 h -1.38 l 0.04,-0.25 h 1.68 c 1.19,0 2.27,0.79 2.27,1.79 0,0.97 -0.99,1.85 -2.35,1.85 h -3.51 v -0.3 h 0.25 c 0.75,0 0.78,-0.11 0.78,-0.47 v -5.23 c 0,-0.36 -0.03,-0.47 -0.78,-0.47 h -0.25 v -0.31 c 0.36,0.03 1.09,0.03 1.47,0.03 0.37,0 1.12,0 1.47,-0.03 v 0.31 h -0.24 c -0.76,0 -0.79,0.11 -0.79,0.47 z"
     id="path1996" /><path
     style="fill:#000000;stroke-width:0"
     inkscape:connector-curvature="0"
     d="m 293.36,707.88 v -0.04 -0.04 l 0.01,-0.04 0.01,-0.03 0.01,-0.04 0.01,-0.04 0.01,-0.03 0.01,-0.04 0.02,-0.03 0.01,-0.04 0.02,-0.03 0.02,-0.03 0.02,-0.04 0.02,-0.03 0.02,-0.03 0.02,-0.03 0.03,-0.03 0.03,-0.02 0.02,-0.03 0.03,-0.02 0.03,-0.03 0.03,-0.02 0.03,-0.02 0.04,-0.02 0.03,-0.01 0.04,-0.02 0.04,-0.01 0.03,-0.01 0.04,-0.01 h 0.05 l 0.04,-0.01 h 0.04 c 0.22,0 0.81,0.14 0.81,0.96 v 0.54 h -0.23 v -0.54 c 0,-0.58 -0.25,-0.64 -0.36,-0.64 -0.33,0 -0.38,0.45 -0.38,0.5 v 1.98 c 0,0.42 0,0.8 -0.35,1.17 -0.4,0.39 -0.88,0.55 -1.36,0.55 -0.82,0 -1.5,-0.47 -1.5,-1.13 0,-0.29 0.2,-0.47 0.45,-0.47 0.28,0 0.47,0.21 0.47,0.46 0,0.12 -0.06,0.45 -0.52,0.47 0.27,0.34 0.77,0.45 1.08,0.45 0.48,0 1.05,-0.39 1.05,-1.28 v -0.36 -0.2 -1 c 0,-0.94 -0.72,-1.29 -1.16,-1.29 -0.48,0 -0.89,0.35 -0.89,0.85 0,0.55 0.41,1.37 2.05,1.44 v 0 0.2 c -0.5,-0.03 -1.21,-0.06 -1.83,-0.36 -0.74,-0.34 -0.99,-0.86 -0.99,-1.3 0,-0.79 0.96,-1.04 1.58,-1.04 0.66,0 1.13,0.39 1.32,0.86 z"
     id="path1998" /><polygon
     style="fill:#000000;stroke-width:0"
     points="295.24,705.03 295.24,704.64 296.6,704.64 296.6,714.58 295.24,714.58 295.24,714.17 296.21,714.17 296.21,705.03 "
     id="polygon2000" /></g>
</g><path
   style="fill:none;stroke:#000000;stroke-width:1.36544478;stroke-linecap:butt;stroke-linejoin:miter;stroke-miterlimit:4;stroke-dasharray:none;stroke-opacity:1;marker-start:url(#Arrow1Lstart);marker-end:url(#marker4401)"
   d="M 624.27529,233.94553 H 768.89414"
   id="path4391"
   inkscape:connector-curvature="0" /><g
   ns0:jacobian_sqrt="1.688109"
   inkscapeversion="0.92.4"
   ns0:alignment="middle center"
   ns0:scale="1.26608168518"
   ns0:preamble="default_packages.tex"
   ns0:text="Energy jump\n"
   ns0:pdfconverter="pstoedit"
   ns0:texconverter="pdflatex"
   ns0:version="0.11.0"
   word-spacing="normal"
   letter-spacing="normal"
   font-size-adjust="none"
   font-stretch="normal"
   font-weight="normal"
   font-variant="normal"
   font-style="normal"
   stroke-miterlimit="10.433"
   xml:space="preserve"
   transform="matrix(2.3878742,0,0,2.5308799,274.84828,-1594.8165)"
   id="content-1"
   style="font-style:normal;font-variant:normal;font-weight:normal;font-stretch:normal;letter-spacing:normal;word-spacing:normal;text-anchor:start;fill:none;fill-opacity:1;fill-rule:evenodd;stroke:#000000;stroke-linecap:butt;stroke-linejoin:miter;stroke-miterlimit:10.43299961;stroke-dasharray:none;stroke-dashoffset:0;stroke-opacity:1">
<path
   id="path5071"
   d="m 150.05,707.91 v -0.04 -0.03 -0.03 -0.03 -0.02 -0.03 -0.03 l -0.01,-0.02 -0.01,-0.02 v -0.02 l -0.01,-0.02 -0.01,-0.02 -0.01,-0.02 -0.02,-0.01 -0.01,-0.02 -0.02,-0.01 -0.02,-0.02 -0.02,-0.01 h -0.01 l -0.02,-0.01 h -0.01 l -0.01,-0.01 h -0.02 l -0.01,-0.01 h -0.02 l -0.02,-0.01 h -0.01 -0.02 l -0.02,-0.01 h -0.02 -0.02 -0.02 l -0.03,-0.01 h -0.02 -0.02 -0.03 l -0.03,-0.01 h -0.02 -0.03 -0.03 -0.03 -0.03 -0.03 -0.04 -0.03 -0.04 -0.23 v -0.31 h 5.73 l 0.43,2.56 h -0.25 c -0.25,-1.53 -0.49,-2.25 -2.19,-2.25 h -1.33 c -0.47,0 -0.48,0.06 -0.48,0.39 v 2.65 h 0.89 c 0.96,0 1.07,-0.31 1.07,-1.15 h 0.25 v 2.62 h -0.25 c 0,-0.86 -0.11,-1.15 -1.07,-1.15 h -0.89 v 2.37 c 0,0.33 0.01,0.41 0.48,0.41 h 1.28 c 1.52,0 1.8,-0.55 1.95,-1.94 h 0.25 l -0.28,2.24 h -5.59 v -0.3 h 0.23 c 0.77,0 0.78,-0.11 0.78,-0.47 z"
   inkscape:connector-curvature="0"
   style="fill:#000000;stroke-width:0" />
<path
   id="path5073"
   d="m 156.58,710.55 v -2.67 c 0,-0.44 -0.11,-0.44 -0.78,-0.44 v -0.31 c 0.36,0.01 0.86,0.03 1.13,0.03 0.26,0 0.78,-0.02 1.11,-0.03 v 0.31 c -0.66,0 -0.77,0 -0.77,0.44 v 1.82 c 0,1.03 0.7,1.6 1.34,1.6 0.63,0 0.74,-0.53 0.74,-1.11 v -2.31 c 0,-0.44 -0.11,-0.44 -0.78,-0.44 v -0.31 c 0.34,0.01 0.86,0.03 1.12,0.03 0.25,0 0.78,-0.02 1.11,-0.03 v 0.31 c -0.51,0 -0.76,0 -0.76,0.29 v 1.9 c 0,0.85 0,1.17 -0.32,1.51 -0.14,0.17 -0.47,0.38 -1.04,0.38 -0.72,0 -1.19,-0.43 -1.47,-1.05 v 1.05 l -1.41,-0.11 v -0.32 c 0.7,0 0.78,-0.06 0.78,-0.54 z"
   inkscape:connector-curvature="0"
   style="fill:#000000;stroke-width:0" />
<path
   id="path5075"
   d="m 162.13,709.42 v 0.21 c 0.07,1.48 0.89,1.73 1.24,1.73 1.03,0 1.12,-1.34 1.12,-1.73 h -2.36 v -0.21 h 2.77 c 0.22,0 0.25,0 0.25,0.21 0,0.98 -0.53,1.95 -1.78,1.95 -1.16,0 -2.07,-1.03 -2.07,-2.27 0,-1.33 1.05,-2.29 2.19,-2.29 1.21,0 1.66,1.11 1.66,1.29 0,0.1 -0.08,0.11 -0.13,0.11 -0.09,0 -0.11,-0.06 -0.14,-0.14 -0.34,-1.01 -1.23,-1.01 -1.34,-1.01 -0.49,0 -0.89,0.29 -1.11,0.65 -0.3,0.49 -0.3,1.14 -0.3,1.5 z"
   inkscape:connector-curvature="0"
   style="fill:#000000;stroke-width:0" />
<path
   id="path5077"
   d="m 167.1,710.42 v 1.1 l -1.37,-0.11 v -0.32 c 0.69,0 0.77,-0.06 0.77,-0.54 v -2.67 c 0,-0.44 -0.11,-0.44 -0.77,-0.44 v -0.31 c 0.39,0.01 0.84,0.03 1.12,0.03 0.41,0 0.88,0 1.27,-0.03 v 0.31 h -0.2 c -0.74,0 -0.77,0.11 -0.77,0.47 v 1.51 c 0,0.99 0.42,1.88 1.17,1.88 0.08,0 0.1,0 0.11,-0.02 -0.03,0 -0.22,-0.12 -0.22,-0.37 0,-0.28 0.21,-0.44 0.43,-0.44 0.18,0 0.42,0.12 0.42,0.44 0,0.32 -0.3,0.61 -0.74,0.61 -0.72,0 -1.07,-0.68 -1.22,-1.1 z"
   inkscape:connector-curvature="0"
   style="fill:#000000;stroke-width:0" />
<path
   id="path5079"
   d="m 170.4,708.45 v 0.01 0 0.01 0 0.01 0.01 0.01 0.01 0.01 0.01 0.02 l 0.01,0.01 v 0.01 0.02 l 0.01,0.02 v 0.01 0.02 l 0.01,0.01 v 0.02 l 0.01,0.02 0.01,0.02 v 0.01 l 0.01,0.02 0.01,0.02 0.01,0.02 0.01,0.02 0.01,0.02 0.01,0.01 0.02,0.02 0.01,0.02 0.01,0.02 0.02,0.02 c 0.39,-0.27 0.8,-0.3 0.98,-0.3 v 0.22 c -0.85,0 -0.85,1 -0.85,1.23 0,0.27 0,0.58 0.15,0.83 0.08,0.13 0.31,0.39 0.7,0.39 0.86,0 0.86,-0.98 0.86,-1.22 0,-0.26 0,-0.58 -0.15,-0.83 -0.08,-0.12 -0.3,-0.4 -0.71,-0.4 v 0 -0.22 c 0.93,0 1.61,0.69 1.61,1.45 0,0.36 -0.15,0.74 -0.4,0.96 0.36,0.34 0.72,0.39 0.89,0.39 0.03,0 0.08,0 0.11,-0.02 -0.11,-0.03 -0.17,-0.14 -0.17,-0.26 0,-0.18 0.14,-0.29 0.29,-0.29 0.1,0 0.28,0.07 0.28,0.3 0,0.17 -0.11,0.49 -0.5,0.49 -0.2,0 -0.64,-0.07 -1.04,-0.47 -0.42,0.32 -0.85,0.36 -1.07,0.36 -0.92,0 -1.6,-0.69 -1.6,-1.46 0,-0.43 0.21,-0.81 0.46,-1.01 -0.12,-0.16 -0.31,-0.49 -0.31,-0.83 0,-0.31 0.14,-0.69 0.44,-0.89 -0.59,-0.16 -0.91,-0.6 -0.91,-0.99 0,-0.71 0.99,-1.26 2.19,-1.26 l 0.02,0.23 c -1,0 -1.69,0.5 -1.69,1.03 0,0.46 0.37,0.83 0.81,0.85 h 0.59 c 0.85,0 1.96,0 1.96,-0.85 0,-0.54 -0.71,-1.03 -1.67,-1.03 v 0 l -0.02,-0.23 c 1.17,0 2.2,0.5 2.2,1.28 0,0.34 -0.12,0.86 -0.64,1.14 -0.53,0.27 -1.09,0.27 -1.7,0.27 -0.25,0 -0.67,0 -0.75,0.01 -0.31,0.05 -0.53,0.35 -0.53,0.67 z"
   inkscape:connector-curvature="0"
   style="fill:#000000;stroke-width:0" />
<path
   id="path5081"
   d="m 178.46,710.47 0.01,0.03 0.01,0.03 0.01,0.02 0.02,0.03 0.01,0.02 0.01,0.03 0.02,0.02 0.01,0.03 0.02,0.02 0.01,0.02 0.03,0.04 0.03,0.04 0.03,0.03 0.04,0.03 0.03,0.03 0.03,0.03 0.04,0.02 0.03,0.02 0.04,0.02 0.03,0.02 0.03,0.02 0.04,0.01 0.03,0.01 0.03,0.01 0.03,0.01 0.04,0.01 h 0.03 l 0.03,0.01 h 0.02 l 0.03,0.01 h 0.03 0.02 0.02 0.03 0.02 0.01 0.02 v 0.32 c -0.23,-0.02 -0.52,-0.03 -0.75,-0.03 -0.17,0 -0.64,0.01 -0.86,0.03 v -0.32 c 0.31,0 0.47,-0.17 0.47,-0.42 0,-0.09 -0.02,-0.12 -0.06,-0.23 l -1,-2.46 -1.11,2.68 c -0.03,0.11 -0.07,0.14 -0.07,0.18 0,0.25 0.38,0.25 0.57,0.25 v 0.32 c -0.25,-0.02 -0.91,-0.03 -1.08,-0.03 -0.27,0 -0.67,0.01 -0.97,0.03 v -0.32 c 0.48,0 0.67,0 0.81,-0.34 l 1.49,-3.62 c -0.05,-0.13 -0.19,-0.46 -0.25,-0.6 -0.22,-0.53 -0.5,-1.22 -1.13,-1.22 -0.06,0 -0.28,0 -0.47,0.17 0.3,0.05 0.38,0.27 0.38,0.43 0,0.25 -0.19,0.42 -0.41,0.42 -0.2,0 -0.42,-0.14 -0.42,-0.44 0,-0.44 0.42,-0.8 0.92,-0.8 0.63,0 1.03,0.57 1.27,1.13 z"
   inkscape:connector-curvature="0"
   style="fill:#000000;stroke-width:0" />
<path
   id="path5083"
   d="m 185,711.52 -1.51,-0.11 v -0.32 c 0.76,0 0.86,-0.06 0.86,-0.54 v -3.94 c 0,-0.45 -0.1,-1.3 -0.74,-1.3 -0.04,0 -0.28,0 -0.53,0.13 0.14,0.03 0.35,0.17 0.35,0.45 0,0.25 -0.18,0.45 -0.46,0.45 -0.28,0 -0.45,-0.2 -0.45,-0.45 0,-0.53 0.55,-0.8 1.11,-0.8 0.75,0 1.37,0.63 1.37,1.54 z"
   inkscape:connector-curvature="0"
   style="fill:#000000;stroke-width:0" />
<path
   id="path5085"
   d="m 185,713.25 v 0.03 0.02 0.03 l -0.01,0.02 v 0.03 l -0.01,0.02 -0.01,0.03 -0.01,0.02 -0.01,0.02 -0.01,0.02 -0.02,0.03 -0.01,0.02 -0.02,0.02 -0.01,0.02 -0.02,0.02 -0.02,0.01 -0.01,0.02 -0.02,0.02 -0.02,0.01 -0.03,0.02 -0.02,0.01 -0.02,0.01 -0.02,0.01 -0.03,0.01 -0.02,0.01 -0.02,0.01 -0.03,0.01 -0.02,0.01 h -0.03 -0.02 l -0.03,0.01 h -0.03 c -0.29,0 -0.53,-0.24 -0.53,-0.52 0,-0.3 0.24,-0.53 0.53,-0.53 0.28,0 0.53,0.23 0.53,0.53 z"
   inkscape:connector-curvature="0"
   style="fill:#000000;stroke-width:0" />
<path
   id="path5087"
   d="m 189.84,707.91 v -0.89 l 1.43,0.11 v 0.31 c -0.69,0 -0.77,0.06 -0.77,0.54 v 3.54 l -1.47,-0.11 v -0.32 c 0.7,0 0.78,-0.06 0.78,-0.54 v -1.77 c 0,-0.87 -0.48,-1.55 -1.2,-1.55 -0.84,0 -0.88,0.47 -0.88,0.99 v 3.3 l -1.46,-0.11 v -0.32 c 0.78,0 0.78,-0.03 0.78,-0.9 v -1.5 c 0,-0.77 0,-1.67 1.51,-1.67 0.55,0 0.99,0.28 1.28,0.89 z"
   inkscape:connector-curvature="0"
   style="fill:#000000;stroke-width:0" />
<path
   id="path5089"
   d="m 192.58,710.55 v -2.67 c 0,-0.44 -0.11,-0.44 -0.78,-0.44 v -0.31 c 0.36,0.01 0.86,0.03 1.13,0.03 0.26,0 0.78,-0.02 1.11,-0.03 v 0.31 c -0.66,0 -0.77,0 -0.77,0.44 v 1.82 c 0,1.03 0.7,1.6 1.34,1.6 0.63,0 0.74,-0.53 0.74,-1.11 v -2.31 c 0,-0.44 -0.11,-0.44 -0.78,-0.44 v -0.31 c 0.34,0.01 0.86,0.03 1.12,0.03 0.25,0 0.78,-0.02 1.11,-0.03 v 0.31 c -0.65,0 -0.76,0 -0.76,0.44 v 1.82 c 0,1.03 0.7,1.6 1.32,1.6 0.63,0 0.74,-0.53 0.74,-1.11 v -2.31 c 0,-0.44 -0.11,-0.44 -0.77,-0.44 v -0.31 c 0.35,0.01 0.86,0.03 1.13,0.03 0.25,0 0.76,-0.02 1.11,-0.03 v 0.31 c -0.52,0 -0.77,0 -0.78,0.29 v 1.9 c 0,0.85 0,1.17 -0.3,1.51 -0.14,0.17 -0.47,0.38 -1.05,0.38 -0.84,0 -1.28,-0.6 -1.44,-0.97 -0.14,0.86 -0.87,0.97 -1.32,0.97 -0.72,0 -1.19,-0.43 -1.47,-1.05 v 1.05 l -1.41,-0.11 v -0.32 c 0.7,0 0.78,-0.06 0.78,-0.54 z"
   inkscape:connector-curvature="0"
   style="fill:#000000;stroke-width:0" />
<path
   id="path5091"
   d="m 201.49,710.86 v 0.66 l -1.42,-0.11 v -0.32 c 0.7,0 0.77,-0.06 0.77,-0.48 v -4.66 c 0,-0.45 -0.11,-0.45 -0.77,-0.45 v -0.3 c 0.33,0 0.84,0.03 1.11,0.03 0.27,0 0.78,-0.03 1.12,-0.03 v 0.3 c -0.67,0 -0.78,0 -0.78,0.45 v 1.68 0.09 l 0.14,0.12 c -0.14,0.21 -0.14,0.22 -0.14,0.41 v 0 2.22 c 0.3,0.51 0.78,0.8 1.28,0.8 0.74,0 1.33,-0.88 1.33,-2 0,-1.21 -0.68,-2.04 -1.42,-2.04 -0.41,0 -0.78,0.21 -1.05,0.61 l -0.14,-0.12 c 0.05,-0.17 0.47,-0.7 1.22,-0.7 1.19,0 2.22,0.96 2.22,2.25 0,1.26 -0.95,2.25 -2.08,2.25 -0.76,0 -1.18,-0.44 -1.39,-0.66 z"
   inkscape:connector-curvature="0"
   style="fill:#000000;stroke-width:0" />
</g><path
   style="fill:none;stroke:#000000;stroke-width:1.98425198;stroke-linecap:butt;stroke-linejoin:miter;stroke-miterlimit:4;stroke-dasharray:1.98425202, 1.98425202;stroke-dashoffset:0;stroke-opacity:1"
   d="m 299.32416,532.87094 c 0,0 176.01874,-134.5718 274.09814,-133.3136 98.0794,1.25818 193.45479,6.64508 193.45479,6.64508 0,0 285.21601,-57.67752 334.35471,-59.47827 49.1387,-1.80075 69.543,-1.36797 69.543,-1.36797"
   id="path1424"
   inkscape:connector-curvature="0"
   sodipodi:nodetypes="cscsc" /></g></svg>