<?xml version="1.0" encoding="UTF-8" standalone="no"?>
<!-- Created with Inkscape (http://www.inkscape.org/) -->

<svg
   xmlns:dc="http://purl.org/dc/elements/1.1/"
   xmlns:cc="http://creativecommons.org/ns#"
   xmlns:rdf="http://www.w3.org/1999/02/22-rdf-syntax-ns#"
   xmlns:svg="http://www.w3.org/2000/svg"
   xmlns="http://www.w3.org/2000/svg"
   xmlns:sodipodi="http://sodipodi.sourceforge.net/DTD/sodipodi-0.dtd"
   xmlns:inkscape="http://www.inkscape.org/namespaces/inkscape"
   version="1.1"
   id="svg2851"
   xml:space="preserve"
   width="1152"
   height="576"
   viewBox="0 0 1152 576"
   sodipodi:docname="Twist_distrib_WT.svg"
   inkscape:version="0.92.4 (5da689c313, 2019-01-14)"><metadata
     id="metadata2857"><rdf:RDF><cc:Work
         rdf:about=""><dc:format>image/svg+xml</dc:format><dc:type
           rdf:resource="http://purl.org/dc/dcmitype/StillImage" /><dc:title></dc:title></cc:Work></rdf:RDF></metadata><defs
     id="defs2855"><clipPath
       clipPathUnits="userSpaceOnUse"
       id="clipPath2871"><path
         d="M 108,54 H 777.6 V 380.16 H 108 Z"
         id="path2869"
         inkscape:connector-curvature="0" /></clipPath><clipPath
       clipPathUnits="userSpaceOnUse"
       id="clipPath2889"><path
         d="M 108,54 H 777.6 V 380.16 H 108 Z"
         id="path2887"
         inkscape:connector-curvature="0" /></clipPath><clipPath
       clipPathUnits="userSpaceOnUse"
       id="clipPath2907"><path
         d="M 108,54 H 777.6 V 380.16 H 108 Z"
         id="path2905"
         inkscape:connector-curvature="0" /></clipPath><clipPath
       clipPathUnits="userSpaceOnUse"
       id="clipPath2925"><path
         d="M 108,54 H 777.6 V 380.16 H 108 Z"
         id="path2923"
         inkscape:connector-curvature="0" /></clipPath><clipPath
       clipPathUnits="userSpaceOnUse"
       id="clipPath2943"><path
         d="M 108,54 H 777.6 V 380.16 H 108 Z"
         id="path2941"
         inkscape:connector-curvature="0" /></clipPath><clipPath
       clipPathUnits="userSpaceOnUse"
       id="clipPath2961"><path
         d="M 108,54 H 777.6 V 380.16 H 108 Z"
         id="path2959"
         inkscape:connector-curvature="0" /></clipPath><clipPath
       clipPathUnits="userSpaceOnUse"
       id="clipPath2979"><path
         d="M 108,54 H 777.6 V 380.16 H 108 Z"
         id="path2977"
         inkscape:connector-curvature="0" /></clipPath><clipPath
       clipPathUnits="userSpaceOnUse"
       id="clipPath2997"><path
         d="M 108,54 H 777.6 V 380.16 H 108 Z"
         id="path2995"
         inkscape:connector-curvature="0" /></clipPath><clipPath
       clipPathUnits="userSpaceOnUse"
       id="clipPath3015"><path
         d="M 108,54 H 777.6 V 380.16 H 108 Z"
         id="path3013"
         inkscape:connector-curvature="0" /></clipPath><clipPath
       clipPathUnits="userSpaceOnUse"
       id="clipPath3037"><path
         d="M 108,54 H 777.6 V 380.16 H 108 Z"
         id="path3035"
         inkscape:connector-curvature="0" /></clipPath><clipPath
       clipPathUnits="userSpaceOnUse"
       id="clipPath3059"><path
         d="M -1021,-463 H 1794 V 1233 H -1021 Z"
         id="path3057"
         inkscape:connector-curvature="0" /></clipPath><clipPath
       clipPathUnits="userSpaceOnUse"
       id="clipPath3069"><path
         d="M 108,54 H 777.6 V 380.16 H 108 Z"
         id="path3067"
         inkscape:connector-curvature="0" /></clipPath><clipPath
       clipPathUnits="userSpaceOnUse"
       id="clipPath3091"><path
         d="M -1021,-463 H 1794 V 1233 H -1021 Z"
         id="path3089"
         inkscape:connector-curvature="0" /></clipPath><clipPath
       clipPathUnits="userSpaceOnUse"
       id="clipPath3101"><path
         d="M 108,54 H 777.6 V 380.16 H 108 Z"
         id="path3099"
         inkscape:connector-curvature="0" /></clipPath><clipPath
       clipPathUnits="userSpaceOnUse"
       id="clipPath3119"><path
         d="M 108,54 H 777.6 V 380.16 H 108 Z"
         id="path3117"
         inkscape:connector-curvature="0" /></clipPath><clipPath
       clipPathUnits="userSpaceOnUse"
       id="clipPath3161"><path
         d="M -1016,-351 H 1660 V 1068 H -1016 Z"
         id="path3159"
         inkscape:connector-curvature="0" /></clipPath><clipPath
       clipPathUnits="userSpaceOnUse"
       id="clipPath3171"><path
         d="M 108,54 H 777.6 V 380.16 H 108 Z"
         id="path3169"
         inkscape:connector-curvature="0" /></clipPath><clipPath
       clipPathUnits="userSpaceOnUse"
       id="clipPath3181"><path
         d="M 108,54 H 777.6 V 380.16 H 108 Z"
         id="path3179"
         inkscape:connector-curvature="0" /></clipPath><clipPath
       clipPathUnits="userSpaceOnUse"
       id="clipPath3191"><path
         d="M 108,54 H 777.6 V 380.16 H 108 Z"
         id="path3189"
         inkscape:connector-curvature="0" /></clipPath><clipPath
       clipPathUnits="userSpaceOnUse"
       id="clipPath3223"><path
         d="M -1016,-351 H 1660 V 1068 H -1016 Z"
         id="path3221"
         inkscape:connector-curvature="0" /></clipPath><clipPath
       clipPathUnits="userSpaceOnUse"
       id="clipPath3243"><path
         d="M -1016,-351 H 1660 V 1068 H -1016 Z"
         id="path3241"
         inkscape:connector-curvature="0" /></clipPath><clipPath
       clipPathUnits="userSpaceOnUse"
       id="clipPath3263"><path
         d="M -1016,-351 H 1660 V 1068 H -1016 Z"
         id="path3261"
         inkscape:connector-curvature="0" /></clipPath></defs><sodipodi:namedview
     pagecolor="#ffffff"
     bordercolor="#666666"
     borderopacity="1"
     objecttolerance="10"
     gridtolerance="10"
     guidetolerance="10"
     inkscape:pageopacity="0"
     inkscape:pageshadow="2"
     inkscape:window-width="1920"
     inkscape:window-height="1001"
     id="namedview2853"
     showgrid="false"
     inkscape:zoom="1.0091003"
     inkscape:cx="561.06916"
     inkscape:cy="194.92502"
     inkscape:window-x="-9"
     inkscape:window-y="-9"
     inkscape:window-maximized="1"
     inkscape:current-layer="g2859" /><g
     id="g2859"
     inkscape:groupmode="layer"
     inkscape:label="Twist_distrib_WT"
     transform="matrix(1.3333333,0,0,-1.3333333,0,576)"><path
       d="M 0,0 H 864 V 432 H 0 Z"
       style="fill:#ffffff;fill-opacity:1;fill-rule:nonzero;stroke:#000000;stroke-opacity:1"
       id="path2861"
       inkscape:connector-curvature="0" /><path
       d="M 108,54 H 777.6 V 380.16 H 108 Z"
       style="fill:#ffffff;fill-opacity:1;fill-rule:nonzero;stroke:none"
       id="path2863"
       inkscape:connector-curvature="0" /><g
       id="g2865"><g
         id="g2867"
         clip-path="url(#clipPath2871)"><path
           d="M 134.58366,54 V 380.16"
           style="fill:none;stroke:#b0b0b0;stroke-width:0.80000001;stroke-linecap:square;stroke-linejoin:round;stroke-miterlimit:10;stroke-dasharray:none;stroke-opacity:1"
           id="path2873"
           inkscape:connector-curvature="0" /></g></g><g
       id="g2875"><path
         d="M 134.58366,54 V 50.5"
         style="fill:#000000;fill-opacity:1;fill-rule:nonzero;stroke:#000000;stroke-width:0.80000001;stroke-linecap:butt;stroke-linejoin:round;stroke-miterlimit:10;stroke-dasharray:none;stroke-opacity:1"
         id="path2877"
         inkscape:connector-curvature="0" /><text
         transform="matrix(1,0,0,-1,118.68522,31.796875)"
         style="font-variant:normal;font-weight:normal;font-size:20px;font-family:DejaVuSans;-inkscape-font-specification:DejaVuSans;writing-mode:lr-tb;fill:#000000;fill-opacity:1;fill-rule:nonzero;stroke:none"
         id="text2881"><tspan
           x="0 12.72 19.08"
           y="0"
           sodipodi:role="line"
           id="tspan2879">0.2</tspan></text>
</g><g
       id="g2883"><g
         id="g2885"
         clip-path="url(#clipPath2889)"><path
           d="M 211.63774,54 V 380.16"
           style="fill:none;stroke:#b0b0b0;stroke-width:0.80000001;stroke-linecap:square;stroke-linejoin:round;stroke-miterlimit:10;stroke-dasharray:none;stroke-opacity:1"
           id="path2891"
           inkscape:connector-curvature="0" /></g></g><g
       id="g2893"><path
         d="M 211.63774,54 V 50.5"
         style="fill:#000000;fill-opacity:1;fill-rule:nonzero;stroke:#000000;stroke-width:0.80000001;stroke-linecap:butt;stroke-linejoin:round;stroke-miterlimit:10;stroke-dasharray:none;stroke-opacity:1"
         id="path2895"
         inkscape:connector-curvature="0" /><text
         transform="matrix(1,0,0,-1,195.73931,31.796875)"
         style="font-variant:normal;font-weight:normal;font-size:20px;font-family:DejaVuSans;-inkscape-font-specification:DejaVuSans;writing-mode:lr-tb;fill:#000000;fill-opacity:1;fill-rule:nonzero;stroke:none"
         id="text2899"><tspan
           x="0 12.72 19.08"
           y="0"
           sodipodi:role="line"
           id="tspan2897">0.3</tspan></text>
</g><g
       id="g2901"><g
         id="g2903"
         clip-path="url(#clipPath2907)"><path
           d="M 288.69183,54 V 380.16"
           style="fill:none;stroke:#b0b0b0;stroke-width:0.80000001;stroke-linecap:square;stroke-linejoin:round;stroke-miterlimit:10;stroke-dasharray:none;stroke-opacity:1"
           id="path2909"
           inkscape:connector-curvature="0" /></g></g><g
       id="g2911"><path
         d="M 288.69183,54 V 50.5"
         style="fill:#000000;fill-opacity:1;fill-rule:nonzero;stroke:#000000;stroke-width:0.80000001;stroke-linecap:butt;stroke-linejoin:round;stroke-miterlimit:10;stroke-dasharray:none;stroke-opacity:1"
         id="path2913"
         inkscape:connector-curvature="0" /><text
         transform="matrix(1,0,0,-1,272.79339,31.796875)"
         style="font-variant:normal;font-weight:normal;font-size:20px;font-family:DejaVuSans;-inkscape-font-specification:DejaVuSans;writing-mode:lr-tb;fill:#000000;fill-opacity:1;fill-rule:nonzero;stroke:none"
         id="text2917"><tspan
           x="0 12.72 19.08"
           y="0"
           sodipodi:role="line"
           id="tspan2915">0.4</tspan></text>
</g><g
       id="g2919"><g
         id="g2921"
         clip-path="url(#clipPath2925)"><path
           d="M 365.74591,54 V 380.16"
           style="fill:none;stroke:#b0b0b0;stroke-width:0.80000001;stroke-linecap:square;stroke-linejoin:round;stroke-miterlimit:10;stroke-dasharray:none;stroke-opacity:1"
           id="path2927"
           inkscape:connector-curvature="0" /></g></g><g
       id="g2929"><path
         d="M 365.74591,54 V 50.5"
         style="fill:#000000;fill-opacity:1;fill-rule:nonzero;stroke:#000000;stroke-width:0.80000001;stroke-linecap:butt;stroke-linejoin:round;stroke-miterlimit:10;stroke-dasharray:none;stroke-opacity:1"
         id="path2931"
         inkscape:connector-curvature="0" /><text
         transform="matrix(1,0,0,-1,349.84748,31.796875)"
         style="font-variant:normal;font-weight:normal;font-size:20px;font-family:DejaVuSans;-inkscape-font-specification:DejaVuSans;writing-mode:lr-tb;fill:#000000;fill-opacity:1;fill-rule:nonzero;stroke:none"
         id="text2935"><tspan
           x="0 12.72 19.08"
           y="0"
           sodipodi:role="line"
           id="tspan2933">0.5</tspan></text>
</g><g
       id="g2937"><g
         id="g2939"
         clip-path="url(#clipPath2943)"><path
           d="M 442.8,54 V 380.16"
           style="fill:none;stroke:#b0b0b0;stroke-width:0.80000001;stroke-linecap:square;stroke-linejoin:round;stroke-miterlimit:10;stroke-dasharray:none;stroke-opacity:1"
           id="path2945"
           inkscape:connector-curvature="0" /></g></g><g
       id="g2947"><path
         d="M 442.8,54 V 50.5"
         style="fill:#000000;fill-opacity:1;fill-rule:nonzero;stroke:#000000;stroke-width:0.80000001;stroke-linecap:butt;stroke-linejoin:round;stroke-miterlimit:10;stroke-dasharray:none;stroke-opacity:1"
         id="path2949"
         inkscape:connector-curvature="0" /><text
         transform="matrix(1,0,0,-1,426.90156,31.796875)"
         style="font-variant:normal;font-weight:normal;font-size:20px;font-family:DejaVuSans;-inkscape-font-specification:DejaVuSans;writing-mode:lr-tb;fill:#000000;fill-opacity:1;fill-rule:nonzero;stroke:none"
         id="text2953"><tspan
           x="0 12.72 19.08"
           y="0"
           sodipodi:role="line"
           id="tspan2951">0.6</tspan></text>
</g><g
       id="g2955"><g
         id="g2957"
         clip-path="url(#clipPath2961)"><path
           d="M 519.85408,54 V 380.16"
           style="fill:none;stroke:#b0b0b0;stroke-width:0.80000001;stroke-linecap:square;stroke-linejoin:round;stroke-miterlimit:10;stroke-dasharray:none;stroke-opacity:1"
           id="path2963"
           inkscape:connector-curvature="0" /></g></g><g
       id="g2965"><path
         d="M 519.85408,54 V 50.5"
         style="fill:#000000;fill-opacity:1;fill-rule:nonzero;stroke:#000000;stroke-width:0.80000001;stroke-linecap:butt;stroke-linejoin:round;stroke-miterlimit:10;stroke-dasharray:none;stroke-opacity:1"
         id="path2967"
         inkscape:connector-curvature="0" /><text
         transform="matrix(1,0,0,-1,503.95565,31.796875)"
         style="font-variant:normal;font-weight:normal;font-size:20px;font-family:DejaVuSans;-inkscape-font-specification:DejaVuSans;writing-mode:lr-tb;fill:#000000;fill-opacity:1;fill-rule:nonzero;stroke:none"
         id="text2971"><tspan
           x="0 12.72 19.08"
           y="0"
           sodipodi:role="line"
           id="tspan2969">0.7</tspan></text>
</g><g
       id="g2973"><g
         id="g2975"
         clip-path="url(#clipPath2979)"><path
           d="M 596.90817,54 V 380.16"
           style="fill:none;stroke:#b0b0b0;stroke-width:0.80000001;stroke-linecap:square;stroke-linejoin:round;stroke-miterlimit:10;stroke-dasharray:none;stroke-opacity:1"
           id="path2981"
           inkscape:connector-curvature="0" /></g></g><g
       id="g2983"><path
         d="M 596.90817,54 V 50.5"
         style="fill:#000000;fill-opacity:1;fill-rule:nonzero;stroke:#000000;stroke-width:0.80000001;stroke-linecap:butt;stroke-linejoin:round;stroke-miterlimit:10;stroke-dasharray:none;stroke-opacity:1"
         id="path2985"
         inkscape:connector-curvature="0" /><text
         transform="matrix(1,0,0,-1,581.00973,31.796875)"
         style="font-variant:normal;font-weight:normal;font-size:20px;font-family:DejaVuSans;-inkscape-font-specification:DejaVuSans;writing-mode:lr-tb;fill:#000000;fill-opacity:1;fill-rule:nonzero;stroke:none"
         id="text2989"><tspan
           x="0 12.72 19.08"
           y="0"
           sodipodi:role="line"
           id="tspan2987">0.8</tspan></text>
</g><g
       id="g2991"><g
         id="g2993"
         clip-path="url(#clipPath2997)"><path
           d="M 673.96225,54 V 380.16"
           style="fill:none;stroke:#b0b0b0;stroke-width:0.80000001;stroke-linecap:square;stroke-linejoin:round;stroke-miterlimit:10;stroke-dasharray:none;stroke-opacity:1"
           id="path2999"
           inkscape:connector-curvature="0" /></g></g><g
       id="g3001"><path
         d="M 673.96225,54 V 50.5"
         style="fill:#000000;fill-opacity:1;fill-rule:nonzero;stroke:#000000;stroke-width:0.80000001;stroke-linecap:butt;stroke-linejoin:round;stroke-miterlimit:10;stroke-dasharray:none;stroke-opacity:1"
         id="path3003"
         inkscape:connector-curvature="0" /><text
         transform="matrix(1,0,0,-1,658.06382,31.796875)"
         style="font-variant:normal;font-weight:normal;font-size:20px;font-family:DejaVuSans;-inkscape-font-specification:DejaVuSans;writing-mode:lr-tb;fill:#000000;fill-opacity:1;fill-rule:nonzero;stroke:none"
         id="text3007"><tspan
           x="0 12.72 19.08"
           y="0"
           sodipodi:role="line"
           id="tspan3005">0.9</tspan></text>
</g><g
       id="g3009"><g
         id="g3011"
         clip-path="url(#clipPath3015)"><path
           d="M 751.01634,54 V 380.16"
           style="fill:none;stroke:#b0b0b0;stroke-width:0.80000001;stroke-linecap:square;stroke-linejoin:round;stroke-miterlimit:10;stroke-dasharray:none;stroke-opacity:1"
           id="path3017"
           inkscape:connector-curvature="0" /></g></g><g
       id="g3019"><path
         d="M 751.01634,54 V 50.5"
         style="fill:#000000;fill-opacity:1;fill-rule:nonzero;stroke:#000000;stroke-width:0.80000001;stroke-linecap:butt;stroke-linejoin:round;stroke-miterlimit:10;stroke-dasharray:none;stroke-opacity:1"
         id="path3021"
         inkscape:connector-curvature="0" /><text
         transform="matrix(1,0,0,-1,735.1179,31.796875)"
         style="font-variant:normal;font-weight:normal;font-size:20px;font-family:DejaVuSans;-inkscape-font-specification:DejaVuSans;writing-mode:lr-tb;fill:#000000;fill-opacity:1;fill-rule:nonzero;stroke:none"
         id="text3025"><tspan
           x="0 12.72 19.08"
           y="0"
           sodipodi:role="line"
           id="tspan3023">1.0</tspan></text>
<text
         transform="matrix(1,0,0,-1,428.37812,8.4375)"
         style="font-variant:normal;font-weight:normal;font-size:20px;font-family:DejaVuSans;-inkscape-font-specification:DejaVuSans;writing-mode:lr-tb;fill:#000000;fill-opacity:1;fill-rule:nonzero;stroke:none"
         id="text3029"><tspan
           x="0 8.2200003 14.96"
           y="0"
           sodipodi:role="line"
           id="tspan3027">r/R</tspan></text>
</g><g
       id="g3031"><g
         id="g3033"
         clip-path="url(#clipPath3037)"><path
           d="M 108,110.65076 H 777.6"
           style="fill:none;stroke:#b0b0b0;stroke-width:0.80000001;stroke-linecap:square;stroke-linejoin:round;stroke-miterlimit:10;stroke-dasharray:none;stroke-opacity:1"
           id="path3039"
           inkscape:connector-curvature="0" /></g></g><g
       id="g3041"><path
         d="m 108,110.65076 h -3.5"
         style="fill:#000000;fill-opacity:1;fill-rule:nonzero;stroke:#000000;stroke-width:0.80000001;stroke-linecap:butt;stroke-linejoin:round;stroke-miterlimit:10;stroke-dasharray:none;stroke-opacity:1"
         id="path3043"
         inkscape:connector-curvature="0" /><g
         id="g3045"
         transform="translate(58.796875,103.0492)"><text
           transform="matrix(1,0,0,-1,16.757812,0)"
           style="font-variant:normal;font-weight:normal;font-size:20px;font-family:DejaVuSans;-inkscape-font-specification:DejaVuSans;writing-mode:lr-tb;fill:#000000;fill-opacity:1;fill-rule:nonzero;stroke:none"
           id="text3049"><tspan
             x="0 12.72"
             y="0"
             sodipodi:role="line"
             id="tspan3047">10</tspan></text>
<g
           id="g3051"
           transform="scale(0.02)"><g
             id="g3053"><g
               id="g3055"
               clip-path="url(#clipPath3059)"><path
                 d="M 106,355 H 732 V 272 H 106 v 83"
                 style="fill:#000000;fill-opacity:1;fill-rule:nonzero;stroke:none"
                 id="path3061"
                 inkscape:connector-curvature="0" /></g></g></g></g></g><g
       id="g3063"><g
         id="g3065"
         clip-path="url(#clipPath3069)"><path
           d="M 108,180.42658 H 777.6"
           style="fill:none;stroke:#b0b0b0;stroke-width:0.80000001;stroke-linecap:square;stroke-linejoin:round;stroke-miterlimit:10;stroke-dasharray:none;stroke-opacity:1"
           id="path3071"
           inkscape:connector-curvature="0" /></g></g><g
       id="g3073"><path
         d="m 108,180.42658 h -3.5"
         style="fill:#000000;fill-opacity:1;fill-rule:nonzero;stroke:#000000;stroke-width:0.80000001;stroke-linecap:butt;stroke-linejoin:round;stroke-miterlimit:10;stroke-dasharray:none;stroke-opacity:1"
         id="path3075"
         inkscape:connector-curvature="0" /><g
         id="g3077"
         transform="translate(71.515625,172.82502)"><text
           transform="matrix(1,0,0,-1,16.757812,0)"
           style="font-variant:normal;font-weight:normal;font-size:20px;font-family:DejaVuSans;-inkscape-font-specification:DejaVuSans;writing-mode:lr-tb;fill:#000000;fill-opacity:1;fill-rule:nonzero;stroke:none"
           id="text3081"><tspan
             x="0"
             y="0"
             id="tspan3079">5</tspan></text>
<g
           id="g3083"
           transform="scale(0.02)"><g
             id="g3085"><g
               id="g3087"
               clip-path="url(#clipPath3091)"><path
                 d="M 106,355 H 732 V 272 H 106 v 83"
                 style="fill:#000000;fill-opacity:1;fill-rule:nonzero;stroke:none"
                 id="path3093"
                 inkscape:connector-curvature="0" /></g></g></g></g></g><g
       id="g3095"><g
         id="g3097"
         clip-path="url(#clipPath3101)"><path
           d="M 108,250.2024 H 777.6"
           style="fill:none;stroke:#b0b0b0;stroke-width:0.80000001;stroke-linecap:square;stroke-linejoin:round;stroke-miterlimit:10;stroke-dasharray:none;stroke-opacity:1"
           id="path3103"
           inkscape:connector-curvature="0" /></g></g><g
       id="g3105"><path
         d="m 108,250.2024 h -3.5"
         style="fill:#000000;fill-opacity:1;fill-rule:nonzero;stroke:#000000;stroke-width:0.80000001;stroke-linecap:butt;stroke-linejoin:round;stroke-miterlimit:10;stroke-dasharray:none;stroke-opacity:1"
         id="path3107"
         inkscape:connector-curvature="0" /><text
         transform="matrix(1,0,0,-1,88.28125,242.60083)"
         style="font-variant:normal;font-weight:normal;font-size:20px;font-family:DejaVuSans;-inkscape-font-specification:DejaVuSans;writing-mode:lr-tb;fill:#000000;fill-opacity:1;fill-rule:nonzero;stroke:none"
         id="text3111"><tspan
           x="0"
           y="0"
           id="tspan3109">0</tspan></text>
</g><g
       id="g3113"><g
         id="g3115"
         clip-path="url(#clipPath3119)"><path
           d="M 108,319.97821 H 777.6"
           style="fill:none;stroke:#b0b0b0;stroke-width:0.80000001;stroke-linecap:square;stroke-linejoin:round;stroke-miterlimit:10;stroke-dasharray:none;stroke-opacity:1"
           id="path3121"
           inkscape:connector-curvature="0" /></g></g><g
       id="g3123"><path
         d="m 108,319.97821 h -3.5"
         style="fill:#000000;fill-opacity:1;fill-rule:nonzero;stroke:#000000;stroke-width:0.80000001;stroke-linecap:butt;stroke-linejoin:round;stroke-miterlimit:10;stroke-dasharray:none;stroke-opacity:1"
         id="path3125"
         inkscape:connector-curvature="0" /><text
         transform="matrix(1,0,0,-1,88.28125,312.37665)"
         style="font-variant:normal;font-weight:normal;font-size:20px;font-family:DejaVuSans;-inkscape-font-specification:DejaVuSans;writing-mode:lr-tb;fill:#000000;fill-opacity:1;fill-rule:nonzero;stroke:none"
         id="text3129"><tspan
           x="0"
           y="0"
           id="tspan3127">5</tspan></text>
<g
         id="g3131"
         transform="rotate(90,-54.391563,104.18844)"><text
           transform="matrix(1,0,0,-1,12.236328,0.640625)"
           style="font-variant:normal;font-weight:normal;font-size:20px;font-family:DejaVuSans;-inkscape-font-specification:DejaVuSans;writing-mode:lr-tb;fill:#000000;fill-opacity:1;fill-rule:nonzero;stroke:none"
           id="text3135"><tspan
             x="0"
             y="0"
             id="tspan3133">(</tspan></text>
<text
           transform="matrix(1,0,0,-1,20.039062,0.640625)"
           style="font-style:italic;font-variant:normal;font-size:20px;font-family:DejaVuSans;-inkscape-font-specification:DejaVuSans-Oblique;writing-mode:lr-tb;fill:#000000;fill-opacity:1;fill-rule:nonzero;stroke:none"
           id="text3139"><tspan
             x="0"
             y="0"
             id="tspan3137">r</tspan></text>
<text
           transform="matrix(1,0,0,-1,28.261719,0.640625)"
           style="font-variant:normal;font-weight:normal;font-size:20px;font-family:DejaVuSans;-inkscape-font-specification:DejaVuSans;writing-mode:lr-tb;fill:#000000;fill-opacity:1;fill-rule:nonzero;stroke:none"
           id="text3143"><tspan
             x="0"
             y="0"
             id="tspan3141">/</tspan></text>
<text
           transform="matrix(1,0,0,-1,35,0.640625)"
           style="font-style:italic;font-variant:normal;font-size:20px;font-family:DejaVuSans;-inkscape-font-specification:DejaVuSans-Oblique;writing-mode:lr-tb;fill:#000000;fill-opacity:1;fill-rule:nonzero;stroke:none"
           id="text3147"><tspan
             x="0"
             y="0"
             id="tspan3145">R</tspan></text>
<text
           transform="matrix(1,0,0,-1,48.896484,0.640625)"
           style="font-variant:normal;font-weight:normal;font-size:20px;font-family:DejaVuSans;-inkscape-font-specification:DejaVuSans;writing-mode:lr-tb;fill:#000000;fill-opacity:1;fill-rule:nonzero;stroke:none"
           id="text3151"><tspan
             x="0 7.8027344 14.160156 21.962891 34.658203 46.962891 59.658203"
             y="0"
             sodipodi:role="line"
             id="tspan3149">) [deg]</tspan></text>
<g
           id="g3153"
           transform="matrix(0.02,0,0,0.02,0,0.640625)"><g
             id="g3155"><g
               id="g3157"
               clip-path="url(#clipPath3161)"><path
                 d="M 455,347 H 145 c -14,-98 -14,-167 0,-208 18,-51 51,-76 100,-76 48,0 91,25 129,76 32,45 59,114 81,208 m 15,83 c 8,92 7,154 -4,187 -18,51 -51,77 -98,77 -50,0 -94,-26 -130,-76 -29,-41 -54,-104 -76,-188 h 308 m -88,338 c 78,0 132,-35 164,-104 31,-69 35,-164 11,-286 C 533,256 493,161 435,93 377,24 308,-10 230,-10 152,-10 97,24 66,93 35,161 31,256 55,378 c 24,122 64,217 122,286 58,69 126,104 205,104"
                 style="fill:#000000;fill-opacity:1;fill-rule:nonzero;stroke:none"
                 id="path3163"
                 inkscape:connector-curvature="0" /></g></g></g></g></g><g
       id="g3165"><g
         id="g3167"
         clip-path="url(#clipPath3171)"><path
           d="m 138.43636,342.03661 7.70541,-174.77656 7.70541,-55.7009 7.70541,-25.067921 7.70541,-12.346536 7.70541,-4.524592 7.7054,-0.794646 7.70541,1.487751 7.70541,2.945776 7.70541,3.88965 7.70541,4.498696 7.70541,4.882665 7.70541,5.840903 7.7054,5.108244 7.70541,5.17809 7.70541,5.18701 7.70541,5.15242 7.70541,5.08677 7.70541,4.9992 7.7054,4.89636 7.70541,4.7832 7.70541,4.66343 7.70541,4.5398 7.70541,4.41437 7.70541,4.28871 7.70541,4.16399 7.7054,4.04103 7.70541,3.92052 7.70541,3.80288 7.70541,3.68843 7.70541,3.57743 7.70541,3.46999 7.70541,3.36619 7.70541,3.26608 7.7054,3.16965 7.70541,3.07688 7.70541,2.98772 7.70541,2.90211 7.70541,2.82 7.70541,2.7413 7.7054,2.66595 7.70541,2.59386 7.70541,2.525 7.70541,2.45928 7.70541,2.39664 7.70541,2.33704 7.7054,2.28046 7.70541,2.22685 7.70541,2.17621 7.70541,2.12854 7.70541,2.08387 7.70541,2.04223 7.70541,2.00369 7.7054,1.96834 7.70541,1.93633 7.70541,1.9078 7.70541,1.88297 7.70541,1.86212 7.70541,1.84559 7.70541,1.8338 7.70541,1.82732 7.7054,1.82684 7.70541,1.83321 7.70541,1.84759 7.70541,1.87146 7.70541,1.90674 7.70541,1.95602 7.7054,2.02284 7.70541,2.11209 7.70541,2.23074 7.70541,2.38903 7.70541,2.60255 7.70541,2.89597 7.7054,3.3106 7.70541,3.92051 7.70541,4.87427 7.70541,6.4953 7.70541,9.64642 7.70541,17.47908 7.70541,47.46669"
           style="fill:none;stroke:#ff0000;stroke-width:1.5;stroke-linecap:square;stroke-linejoin:round;stroke-miterlimit:10;stroke-dasharray:none;stroke-opacity:1"
           id="path3173"
           inkscape:connector-curvature="0" /></g></g><g
       id="g3175"><g
         id="g3177"
         clip-path="url(#clipPath3181)"><path
           d="m 138.43636,326.26727 7.70541,-139.61206 7.70541,-39.97123 7.70541,-15.22792 7.70541,-5.64406 7.70541,-0.94617 7.7054,1.60573 7.70541,3.61492 7.70541,3.85183 7.70541,4.39971 7.70541,4.70671 7.70541,4.85789 7.70541,4.90627 7.7054,4.88606 7.70541,4.82 7.70541,4.72351 7.70541,4.60722 7.70541,4.47857 7.70541,4.3428 7.7054,4.20363 7.70541,4.06371 7.70541,3.9249 7.70541,3.7885 7.70541,3.65542 7.70541,3.52626 7.70541,3.40143 7.7054,3.28112 7.70541,3.16547 7.70541,3.05448 7.70541,2.94813 7.70541,2.84632 7.70541,2.74894 7.70541,2.65586 7.70541,2.56691 7.7054,2.48195 7.70541,2.40083 7.70541,2.32336 7.70541,2.24941 7.70541,2.17882 7.70541,2.11144 7.7054,2.04713 7.70541,1.98578 7.70541,1.92725 7.70541,1.87143 7.70541,1.81824 7.70541,1.76757 7.7054,1.71934 7.70541,1.67351 7.70541,1.63 7.70541,1.5888 7.70541,1.54987 7.70541,1.51321 7.70541,1.47884 7.7054,1.4468 7.70541,1.41715 7.70541,1.38999 7.70541,1.36545 7.70541,1.3437 7.70541,1.32498 7.70541,1.30955 7.70541,1.29781 7.7054,1.29022 7.70541,1.28741 7.70541,1.29013 7.70541,1.2994 7.70541,1.31656 7.70541,1.34339 7.7054,1.38227 7.70541,1.43657 7.70541,1.51101 7.70541,1.61253 7.70541,1.7517 7.70541,1.94526 7.7054,2.2212 7.70541,2.62974 7.70541,3.26943 7.70541,4.36111 7.70541,6.49174 7.70541,11.82102 7.70541,37.38493"
           style="fill:none;stroke:#0000ff;stroke-width:1.5;stroke-linecap:square;stroke-linejoin:round;stroke-miterlimit:10;stroke-dasharray:none;stroke-opacity:1"
           id="path3183"
           inkscape:connector-curvature="0" /></g></g><g
       id="g3185"><g
         id="g3187"
         clip-path="url(#clipPath3191)"><path
           d="m 138.43636,314.8772 7.70541,-111.20065 7.70541,-28.0885 7.70541,-9.63129 7.70541,-2.0672 7.70541,0.77564 7.7054,2.60239 7.70541,3.60688 7.70541,4.15527 7.70541,4.43531 7.70541,4.55115 7.70541,4.56412 7.70541,4.5119 7.7054,4.41851 7.70541,4.29961 7.70541,4.16562 7.70541,4.02353 7.70541,3.87813 7.70541,3.73263 7.7054,3.5892 7.70541,3.4493 7.70541,3.31385 7.70541,3.18341 7.70541,3.05832 7.70541,2.93868 7.70541,2.82452 7.7054,2.71575 7.70541,2.61222 7.70541,2.51375 7.70541,2.42016 7.70541,2.3312 7.70541,2.24666 7.70541,2.16631 7.70541,2.08994 7.7054,2.01733 7.70541,1.94826 7.70541,1.88255 7.70541,1.82002 7.70541,1.76047 7.70541,1.70375 7.7054,1.64972 7.70541,1.59821 7.70541,1.5491 7.70541,1.50228 7.70541,1.45762 7.70541,1.41502 7.7054,1.37441 7.70541,1.33569 7.70541,1.2988 7.70541,1.26371 7.70541,1.23032 7.70541,1.19866 7.70541,1.16869 7.7054,1.14041 7.70541,0.87228 7.70541,1.09846 7.70541,1.075 7.70541,1.05351 7.70541,1.03417 7.70541,1.01716 7.70541,1.00273 7.7054,0.99125 7.70541,0.98314 7.70541,0.97899 7.70541,0.97954 7.70541,0.9858 7.70541,0.99907 7.7054,1.02118 7.70541,1.05458 7.70541,1.10279 7.70541,1.17096 7.70541,1.26683 7.70541,1.40272 7.7054,1.59913 7.70541,1.8929 7.70541,2.35622 7.70541,3.3216 7.70541,4.71938 7.70541,8.63551 7.70541,27.60279"
           style="fill:none;stroke:#008000;stroke-width:1.5;stroke-linecap:square;stroke-linejoin:round;stroke-miterlimit:10;stroke-dasharray:none;stroke-opacity:1"
           id="path3193"
           inkscape:connector-curvature="0" /></g></g><g
       id="g3195"><path
         d="M 108,54 V 380.16"
         style="fill:none;stroke:#000000;stroke-width:0.80000001;stroke-linecap:square;stroke-linejoin:miter;stroke-miterlimit:10;stroke-dasharray:none;stroke-opacity:1"
         id="path3197"
         inkscape:connector-curvature="0" /><path
         d="M 777.6,54 V 380.16"
         style="fill:none;stroke:#000000;stroke-width:0.80000001;stroke-linecap:square;stroke-linejoin:miter;stroke-miterlimit:10;stroke-dasharray:none;stroke-opacity:1"
         id="path3199"
         inkscape:connector-curvature="0" /><path
         d="M 108,54 H 777.6"
         style="fill:none;stroke:#000000;stroke-width:0.80000001;stroke-linecap:square;stroke-linejoin:miter;stroke-miterlimit:10;stroke-dasharray:none;stroke-opacity:1"
         id="path3201"
         inkscape:connector-curvature="0" /><path
         d="M 108,380.16 H 777.6"
         style="fill:none;stroke:#000000;stroke-width:0.80000001;stroke-linecap:square;stroke-linejoin:miter;stroke-miterlimit:10;stroke-dasharray:none;stroke-opacity:1"
         id="path3203"
         inkscape:connector-curvature="0" /><path
         d="m 637.6,64 h 126 c 2.66667,0 4,1.333333 4,4 v 86.07812 c 0,2.66667 -1.33333,4 -4,4 h -126 c -2.66667,0 -4,-1.33333 -4,-4 V 68 c 0,-2.666667 1.33333,-4 4,-4 z"
         style="fill:#ffffff;fill-opacity:0.8;fill-rule:nonzero;stroke:#cccccc;stroke-width:1;stroke-linecap:butt;stroke-linejoin:miter;stroke-miterlimit:10;stroke-dasharray:none;stroke-opacity:0.8"
         id="path3205"
         inkscape:connector-curvature="0" /><path
         d="m 641.6,141.875 h 40"
         style="fill:none;stroke:#ff0000;stroke-width:1.5;stroke-linecap:square;stroke-linejoin:round;stroke-miterlimit:10;stroke-dasharray:none;stroke-opacity:1"
         id="path3207"
         inkscape:connector-curvature="0" /><g
         id="g3209"
         transform="translate(697.6,134.875)"><text
           transform="matrix(1,0,0,-1,15.732422,0.796875)"
           style="font-variant:normal;font-weight:normal;font-size:20px;font-family:DejaVuSans;-inkscape-font-specification:DejaVuSans;writing-mode:lr-tb;fill:#000000;fill-opacity:1;fill-rule:nonzero;stroke:none"
           id="text3213"><tspan
             x="0 20.654297"
             y="0"
             sodipodi:role="line"
             id="tspan3211">=6</tspan></text>
<g
           id="g3215"
           transform="matrix(0.02,0,0,0.02,0,0.796875)"><g
             id="g3217"><g
               id="g3219"
               clip-path="url(#clipPath3223)"><path
                 d="M 367,674 488,0 H 393 L 318,404 51,0 h -94 l 340,524 -17,97 c -7,41 -28,62 -63,62 h -47 l 15,77 57,-1 c 73,-2 115,-30 125,-85"
                 style="fill:#000000;fill-opacity:1;fill-rule:nonzero;stroke:none"
                 id="path3225"
                 inkscape:connector-curvature="0" /></g></g></g></g><path
         d="m 641.6,112.51563 h 40"
         style="fill:none;stroke:#0000ff;stroke-width:1.5;stroke-linecap:square;stroke-linejoin:round;stroke-miterlimit:10;stroke-dasharray:none;stroke-opacity:1"
         id="path3227"
         inkscape:connector-curvature="0" /><g
         id="g3229"
         transform="translate(697.6,105.51563)"><text
           transform="matrix(1,0,0,-1,15.732422,0.796875)"
           style="font-variant:normal;font-weight:normal;font-size:20px;font-family:DejaVuSans;-inkscape-font-specification:DejaVuSans;writing-mode:lr-tb;fill:#000000;fill-opacity:1;fill-rule:nonzero;stroke:none"
           id="text3233"><tspan
             x="0 20.654297"
             y="0"
             sodipodi:role="line"
             id="tspan3231">=8</tspan></text>
<g
           id="g3235"
           transform="matrix(0.02,0,0,0.02,0,0.796875)"><g
             id="g3237"><g
               id="g3239"
               clip-path="url(#clipPath3243)"><path
                 d="M 367,674 488,0 H 393 L 318,404 51,0 h -94 l 340,524 -17,97 c -7,41 -28,62 -63,62 h -47 l 15,77 57,-1 c 73,-2 115,-30 125,-85"
                 style="fill:#000000;fill-opacity:1;fill-rule:nonzero;stroke:none"
                 id="path3245"
                 inkscape:connector-curvature="0" /></g></g></g></g><path
         d="m 641.6,83.15625 h 40"
         style="fill:none;stroke:#008000;stroke-width:1.5;stroke-linecap:square;stroke-linejoin:round;stroke-miterlimit:10;stroke-dasharray:none;stroke-opacity:1"
         id="path3247"
         inkscape:connector-curvature="0" /><g
         id="g3249"
         transform="translate(697.6,76.15625)"><text
           transform="matrix(1,0,0,-1,15.732422,0.796875)"
           style="font-variant:normal;font-weight:normal;font-size:20px;font-family:DejaVuSans;-inkscape-font-specification:DejaVuSans;writing-mode:lr-tb;fill:#000000;fill-opacity:1;fill-rule:nonzero;stroke:none"
           id="text3253"><tspan
             x="0 20.654297 33.378906"
             y="0"
             sodipodi:role="line"
             id="tspan3251">=10</tspan></text>
<g
           id="g3255"
           transform="matrix(0.02,0,0,0.02,0,0.796875)"><g
             id="g3257"><g
               id="g3259"
               clip-path="url(#clipPath3263)"><path
                 d="M 367,674 488,0 H 393 L 318,404 51,0 h -94 l 340,524 -17,97 c -7,41 -28,62 -63,62 h -47 l 15,77 57,-1 c 73,-2 115,-30 125,-85"
                 style="fill:#000000;fill-opacity:1;fill-rule:nonzero;stroke:none"
                 id="path3265"
                 inkscape:connector-curvature="0" /></g></g></g></g></g><path
       style="fill:none;stroke:#ff0000;stroke-width:1.55905509;stroke-linecap:butt;stroke-linejoin:miter;stroke-miterlimit:4;stroke-dasharray:4.67716539, 4.67716539;stroke-dashoffset:0;stroke-opacity:1"
       d="m 180.20939,69.94031 c -0.46005,-1.380164 -30.74695,-2.833227 -46.42685,40.05867"
       id="path3812"
       inkscape:connector-curvature="0"
       sodipodi:nodetypes="cc" /><path
       style="fill:none;stroke:#0000ff;stroke-width:1.55905509;stroke-linecap:butt;stroke-linejoin:miter;stroke-miterlimit:4;stroke-dasharray:4.67716539, 4.67716538999999987;stroke-dashoffset:0;stroke-opacity:1"
       d="m 176.96341,124.86583 c -0.46005,-1.38016 -30.74695,-2.83322 -46.42685,40.05867"
       id="path3812-1"
       inkscape:connector-curvature="0"
       sodipodi:nodetypes="cc" /><path
       style="fill:none;stroke:#008000;stroke-width:1.55905509;stroke-linecap:butt;stroke-linejoin:miter;stroke-miterlimit:4;stroke-dasharray:4.67716539, 4.67716538999999987;stroke-dashoffset:0;stroke-opacity:1"
       d="m 176.96341,164.6652 c -0.46005,-1.38016 -28.92764,-5.19095 -44.60754,37.70094"
       id="path3812-1-6"
       inkscape:connector-curvature="0"
       sodipodi:nodetypes="cc" /><path
       style="fill:none;stroke:#0000ff;stroke-width:1.55905513;stroke-linecap:butt;stroke-linejoin:miter;stroke-opacity:1;stroke-miterlimit:4;stroke-dasharray:4.67716539, 4.67716538999999987;stroke-dashoffset:0"
       d="m 708.63659,300.02773 c 0,0 54.45836,16.35184 58.66271,34.746"
       id="path3844"
       inkscape:connector-curvature="0" /><path
       style="fill:none;stroke:#ff0000;stroke-width:1.55905516;stroke-linecap:butt;stroke-linejoin:miter;stroke-opacity:1;stroke-miterlimit:4;stroke-dasharray:4.67716547,4.67716547;stroke-dashoffset:0"
       d="m 708.63659,279.37278 c 0,0 54.45836,27.02139 60.76488,40.68562"
       id="path3846"
       inkscape:connector-curvature="0" /><path
       style="fill:none;stroke:#0c860c;stroke-width:1.55905513;stroke-linecap:butt;stroke-linejoin:miter;stroke-opacity:1;stroke-miterlimit:4;stroke-dasharray:4.67716539, 4.67716538999999987;stroke-dashoffset:0"
       d="m 716.342,315.31695 c 0,0 49.38065,18.93123 50.9573,32.06992"
       id="path3848"
       inkscape:connector-curvature="0" /></g></svg>